<svg id="图层_1" data-name="图层 1" xmlns="http://www.w3.org/2000/svg" viewBox="0 0 50 40"><defs><style>.cls-1{isolation:isolate;}</style></defs><title>chenxi-onilne</title><g class="cls-1"><path d="M9.74,1.32a6.68,6.68,0,0,1,2-.27,3.17,3.17,0,0,1,1.55.27,6.2,6.2,0,0,0,.72.27,4.64,4.64,0,0,1,.73.46c.18.18.28.27.18.45a.86.86,0,0,0-.09.46,13.09,13.09,0,0,1-1,2.73A16.66,16.66,0,0,1,12.38,8.6c-.28.46-.28.73-.1.73a.78.78,0,0,1,.55.27,1.19,1.19,0,0,0,.64.37.33.33,0,0,1,.09.27c-.09.09-.64.64-1.73,1.55l-1,.91.82.09a4.57,4.57,0,0,1,2.27,1c.37.27.46.55.37.73s-.09.09-.28,0-.27,0-.36.09a2,2,0,0,1-.91.27,2,2,0,0,0-1.09.37,1,1,0,0,1-.73.27c-.55.09-.82.27-.82.45v.1a7.4,7.4,0,0,0,2.18,0l.82-.1.46.46.36.36a.35.35,0,0,1-.09.28c-.09.18-.45.27-1,.45a7,7,0,0,0-1.64.82,2.52,2.52,0,0,0-.73.55,1.45,1.45,0,0,0-.36.63,4.59,4.59,0,0,0-.27.82,2.32,2.32,0,0,0-.09.73c0,.18,0,.27.09.27a4.32,4.32,0,0,0,.82-.45c1.18-.91,2.09-1.46,2.54-1.82a11.21,11.21,0,0,0,2.19-2.19.78.78,0,0,1,.55-.27,1.44,1.44,0,0,1,.72.27c.28.19.46.37.46.46a1.94,1.94,0,0,1-.55.82A2.7,2.7,0,0,0,16,19a.2.2,0,0,1-.19.18c-.09,0-.27.27-.36.73a5,5,0,0,1-.55,1.27c-.18.46-.27.64-.18.73a9,9,0,0,0,.91.46,9.76,9.76,0,0,1,3.28,2,15.9,15.9,0,0,1,1.18,1.36,2.74,2.74,0,0,1,.55,1.1c0,.09,0,.18-.09.18s-.18-.09-.37-.18a3.1,3.1,0,0,0-1.09-.19h-.64l-.72-.82c-.91-.91-1.55-1.63-1.92-2A6.44,6.44,0,0,0,14.74,23a2.34,2.34,0,0,0-.63-.27c-.1,0-.19,0-.19.09a10.46,10.46,0,0,1-1,1.18c-.36.46-.54.64-.64.64s-.27.18-.45.46-.64.72-1.18,1.36a4.63,4.63,0,0,1-.82.73,1.34,1.34,0,0,1-.64.18,1.76,1.76,0,0,1-1.73-.64,1.36,1.36,0,0,1-.36-1,9.47,9.47,0,0,1,.18-1.36,1.43,1.43,0,0,0,0-.91c0,.36,0,.18.09,0a5.8,5.8,0,0,0,.36-1.37,6.36,6.36,0,0,0,.19-1.64c0-.09-.19-.18-.46-.09-.64.09-1.09,0-1.18-.36S6,19.61,6,19.8V20a6.43,6.43,0,0,1-.72,1.46c-.46.81-.82,1.18-.82,1.27a7,7,0,0,1-.55,1c-.36.55-.73,1-.91,1.28s-.45.54-.45.63a5.77,5.77,0,0,1-.46.73c-.36.46-.64.64-.73.64s-.09-.09,0-.28v-.27c-.09,0-.09,0-.27.09a1,1,0,0,1-.64-.18c-.45-.18-.54-.64-.36-1.46,0-.27.09-.45.09-.63A8.26,8.26,0,0,1,1,22.35a6.54,6.54,0,0,1,.91-1.64c.09,0,.09.09.09.18a2.56,2.56,0,0,1-.27.73l-.28.82.28-.37a3,3,0,0,0,.45-.73c.09-.27.55-.81,1.18-1.82s1.28-1.91,1.83-2.82c.81-1.18,1.54-2.18,2.09-2.82.36-.36.45-.55.45-.64a6.85,6.85,0,0,0-.82.37c-.54.27-.81.45-1,.54A10.52,10.52,0,0,1,4.27,15,21,21,0,0,1,2,15.88c-.64.46-1,.55-1.18.46s-.28-.27-.28-.73a2.05,2.05,0,0,1,.09-.82,1.45,1.45,0,0,1,.64-.55c.27-.18.73-.45,1.46-1S4,12.15,4.55,11.7s.91-.73,1.09-.91l.27-.19L5.37,10A9.18,9.18,0,0,1,3.55,6.05,18.73,18.73,0,0,0,3,4c-.18-.46-.27-.73-.18-.82s.36,0,.82.27A7.3,7.3,0,0,1,5,4.51l1,.91L6.19,5a5.51,5.51,0,0,1,.63-1.27A8.67,8.67,0,0,1,8,2.32a4,4,0,0,1,.91-.64A1.69,1.69,0,0,1,9.74,1.32ZM8.19,10.79c-.09-.19-.18-.28-.27-.28a.59.59,0,0,0-.46.18,1.52,1.52,0,0,1-.64.19,1.61,1.61,0,0,0-1,.54,18.54,18.54,0,0,0-2.36,2.46l-.1.18a6.27,6.27,0,0,0,.91-.45,16.12,16.12,0,0,0,2.1-1.09c.91-.55,1.45-.91,1.73-1.1,0-.18.09-.27.09-.36A.17.17,0,0,0,8.19,10.79ZM6.73,18c0-.09-.09-.19-.18-.09s-.09.09-.18.18v.36a.28.28,0,0,0,.18-.09C6.64,18.16,6.73,18.07,6.73,18Zm3.55-3.1c0-.09-.27-.09-.73-.09s-.63,0-.72.09-.1.18,0,.18A.09.09,0,0,0,8.92,15c.09-.09.09-.09.18-.09s.09,0,.09.09,0,.09-.09.18c0,.28-.18.37-.37.28s-.36.09-.72.45-.55.64-.37.64a1.07,1.07,0,0,1,.28-.18c.27-.18.36-.18.36-.09s-.18.27-.46.63-.45.46-.54.37-.09-.09-.18,0,0,.18.09.18a.09.09,0,0,1,.09.09l-.18.18-.19.19a.35.35,0,0,1,.19-.1,26.61,26.61,0,0,0,2.45-2.18C10.19,15.25,10.37,15,10.28,14.88ZM8.55,17.43c0-.18-.27,0-.73.55s-.72.91-.54.91a1,1,0,0,0,.45-.09c.19-.1.28-.1.37-.19a.69.69,0,0,0,.18-.45A4.22,4.22,0,0,0,8.55,17.43ZM10.46,3.14a2.15,2.15,0,0,0-1.27-.09,1.65,1.65,0,0,0-.82.64,6.56,6.56,0,0,0-.73,1.54,6.27,6.27,0,0,0-.27,1.55,1.8,1.8,0,0,0,.09.73,1.37,1.37,0,0,0,.18.55.31.31,0,0,0,.09.18c.19-.09.28-.09.37,0a.67.67,0,0,0,.45.09c.18-.09.28-.18.28-.37s0-.36-.28-.63a.84.84,0,0,1-.27-.46c0-.09-.09-.18-.27-.54a1.4,1.4,0,0,1-.28-.55c0-.09.09-.09.19-.09s.36.09.54.09a6.43,6.43,0,0,1,.73.27l.91.37L10.37,6a3.49,3.49,0,0,0,.37-.91,4.46,4.46,0,0,1,.36-1c.09-.36.18-.55.09-.64S10.92,3.23,10.46,3.14Zm1.92,18.93A.34.34,0,0,1,12.1,22c-.09-.09-.45,0-1.09.27a12.83,12.83,0,0,0-1.18.64.85.85,0,0,0-.28.64,6.74,6.74,0,0,1-.18,1.09,4.23,4.23,0,0,0-.09.73c.09.09.46,0,.91-.46a14.67,14.67,0,0,0,1.73-1.73c.55-.63.82-1,.82-1a.31.31,0,0,0-.18-.09Zm1-.45c0-.09-.19-.09-.46,0a.31.31,0,0,0-.18.09.31.31,0,0,0,.18.09h.27A.2.2,0,0,0,13.38,21.62Z" transform="translate(0)"/><path d="M42.87.14c.09-.19.36-.19.91,0a4.65,4.65,0,0,1,1.36,1.09c.55.54.55,1,0,1.36-.18.19-.63.55-1.18,1.1a8.28,8.28,0,0,0-.82.91c0,.09.09.27.36.54s.46.64.37.82a3.61,3.61,0,0,1-1.18,1c-1.28.91-1.82,1.46-1.55,1.55a4.74,4.74,0,0,0,1,.36,3.51,3.51,0,0,1,.91.37c.09.09,0,.36-.27.64a.8.8,0,0,0-.28.45.33.33,0,0,0,.09.27,5,5,0,0,0,1.55.82,6.78,6.78,0,0,1,1.37.82c.09.09,0,.28-.09.46a.61.61,0,0,1-.46.36,2.74,2.74,0,0,1-1.27.18c-1.28.09-1.91.19-2,.37s.1.45.37,1.09c.18.45.36.73.36.82s.18.09.37.09a3,3,0,0,1,1.45.18c.64.18,1,.37,1,.55s-.09.18-.18.27a1.31,1.31,0,0,1-.64.18,2,2,0,0,1-.72.09c-.46,0-.73,0-.73.1s.09.72.54,1.82a5.48,5.48,0,0,0,.82,1.63c.09,0,.28-.09.46-.36a8.25,8.25,0,0,0,.45-.73c.1-.36.28-.45.46-.45s.55.18,1,.63a1.48,1.48,0,0,1,.64.91c0,.19-.28.55-.91,1.19a3.79,3.79,0,0,0-.91,1.09,2.89,2.89,0,0,0,.63,1.18,7.4,7.4,0,0,0,1.1,1.55,7.2,7.2,0,0,0,1.27,1.18,6,6,0,0,1,1.09,1.1c.37.45.46.72.37.91a.47.47,0,0,1-.18.36c-.1.09-.28,0-.55-.09a6.7,6.7,0,0,1-.73-.46c-.45-.36-1-.91-1.73-1.63A9.52,9.52,0,0,1,45.33,25c-.37-.55-.55-.92-.73-.92s-.37,0-.64.19a9.69,9.69,0,0,0-1,.63c-.91.64-1.46.91-1.82.82-.18-.09-.18-.27.18-.63a9.49,9.49,0,0,0,1.27-1.64,7.4,7.4,0,0,0,.73-1.28A4.43,4.43,0,0,0,43,21.07a13.73,13.73,0,0,1-.82-2.18c-.27-.82-.55-1.28-.64-1.28a.66.66,0,0,0-.54.18.83.83,0,0,0-.28.64v.46a6.18,6.18,0,0,1,.55.45,4.92,4.92,0,0,1,.55.37c.09.09.09.18,0,.18a2.13,2.13,0,0,1-.73.27c-.37.09-.64.18-.73.18s-.18.46-.27,1.19-.19,1.27-.19,1.45a1.26,1.26,0,0,0,.46.82c.27.27.45.46.45.64a3.91,3.91,0,0,1-.63,1.46A6.83,6.83,0,0,1,39,27.44,1.54,1.54,0,0,1,38,28c-.36,0-.54,0-.63-.09s-.09-.28-.09-.73c0-.27.09-.55.09-.73a2.39,2.39,0,0,1,.45-.73c.37-.54.55-.82.46-.91s-.19,0-.46.09a6.34,6.34,0,0,0-.82.64c-.45.46-.82.64-1.09.55a1,1,0,0,1-.09-.82,2.08,2.08,0,0,1,.36-1l.28-.37L36,24a.42.42,0,0,1-.55-.18,1.24,1.24,0,0,1,0-.82c.1-.36.19-.63.37-.73s.27-.36.18-.54-.09-.18-.18-.18-.09.18-.18.36a8.64,8.64,0,0,1-1.64,2,2.79,2.79,0,0,1-1.37.82c-.09,0-.18,0-.18-.09a1.83,1.83,0,0,1-.09-.45,2.24,2.24,0,0,1,.73-1.82c.36-.37.54-.46.54-.28s-.09.18-.18.28-.09.18-.18.36v.36c0,.09,0,.19.09.19s.46-.28.91-.91.73-1,.64-1.1a1.34,1.34,0,0,1,.54-.63c.46-.37.64-.55.64-.55s-.54.18-1.55.73-1.54.91-1.63.91a1.55,1.55,0,0,1-.46-.18l-.36-.19a4.66,4.66,0,0,0,.09.82,1.49,1.49,0,0,1,0,.91,1.19,1.19,0,0,1-.73.55.79.79,0,0,1-.64,0,4.08,4.08,0,0,1-1-2.37L29.58,20l-.82,1.09a9.6,9.6,0,0,1-1.64,2,.79.79,0,0,1-.91.09,2.53,2.53,0,0,1-1.46-1.45,3.1,3.1,0,0,1-.27-1.37c0-.54,0-1.91.09-4.18a8.47,8.47,0,0,1,.09-1.73c0-.37.09-.64.09-.91a.54.54,0,0,1,.19-.46c.09-.09.18-.09.36-.09a1,1,0,0,1,.73.18,9.15,9.15,0,0,1,.82,1.09l.64,1h1c.63,0,1,0,1.09-.1A2.22,2.22,0,0,0,29.76,14v-.91c0-.09-.09-.18-.27-.18a1.22,1.22,0,0,0-.64.27,1.37,1.37,0,0,1-.91.28,2.18,2.18,0,0,1-1.09-.28c-.82-.45-1.28-.73-1.28-.91A19.84,19.84,0,0,1,28,10.51a6.25,6.25,0,0,1,.91-.54,2.48,2.48,0,0,1,1.18,0c.64.09,1.1.27,1.55.36s.64.18.73.09a4.74,4.74,0,0,0,.36-1A3.09,3.09,0,0,0,33,8.33c0-.18.09-.27.18-.27a.19.19,0,0,1,.18.18V9c-.09.63-.18,1.18-.27,1.72s-.18,1.19-.28,1.83a15.47,15.47,0,0,1-.27,2c-.09.63-.27,1.64-.36,2.91A16.16,16.16,0,0,0,32,20.25v.64l.45-.27a1.51,1.51,0,0,1,.64-.28c.18.09,1.27-.45,3.09-1.54a2.79,2.79,0,0,0,.91-.82v-.19h-.27c-.18.1-.36.1-.55.19s-.18-.09.19-.37l.36-.27L36.41,17,36,16.61l-.64.27a1.22,1.22,0,0,1-.91.19c-.27,0-.45-.19-.73-.55-.54-.55-.63-1-.36-1.27a.51.51,0,0,1,.64,0,1.31,1.31,0,0,0,.82-.1c.36-.18,1.18-.54,2.55-1.27a16.5,16.5,0,0,0,1.63-1,.8.8,0,0,0,.28-.64v-.36l-1,.54-1.1.55c-.27.09-.36,0-.36-.09s.18-.27.55-.55c.54-.36.72-.63.45-.63a4.55,4.55,0,0,0-1,.36,4.07,4.07,0,0,1-1.28.27c-.36,0-.54,0-.63-.18-.18-.45.09-.82.91-1.09a10.27,10.27,0,0,0,1.82-1.18c.73-.55,1.09-.91,1.09-1.1s-.45-.09-1.36-.09a8.62,8.62,0,0,1-2.83-.36c-.27-.09-.36-.18-.09-.37.09-.09.18-.09.28-.18A22.8,22.8,0,0,0,39,5.6a8.27,8.27,0,0,0,2-1.73A9.38,9.38,0,0,0,42.69,1.5,2.22,2.22,0,0,0,43,.86.54.54,0,0,0,42.87.5C42.87.32,42.78.14,42.87.14ZM29.12,17.61a1.94,1.94,0,0,0,.19-.63c-.19,0-.28,0-.28.09s-.27.09-.63.09a1.84,1.84,0,0,0-.46.09c-.09,0-.09.18-.09.27v1l.09.73.46-.55A4.39,4.39,0,0,0,29.12,17.61ZM35.31,4.32l-.09-.63.73.09a4.09,4.09,0,0,0,.82.09,2.9,2.9,0,0,1,.18.54,2.19,2.19,0,0,0,.37,1,1.39,1.39,0,0,1,.27.54c0,.09-.09.18-.18.37A.87.87,0,0,1,37,6.6a2.46,2.46,0,0,1-.64-.37A2.84,2.84,0,0,1,35.31,4.32Zm1.37,17.12v-.19c0-.09,0-.09-.09-.09v.18A.09.09,0,0,0,36.68,21.44Zm3.91-6.56c-.09-.18-.27-.18-.73-.18a2.8,2.8,0,0,0-1.36.55l-.64.36.82.09c.91.09,1.27.27,1.27.55v.18a3.29,3.29,0,0,1-.91.36c-.63.19-1,.37-1,.64,0,.09,0,.09.09.18s.19.18.28.18a3.54,3.54,0,0,0,.54-.18,3.06,3.06,0,0,0,1.1-.54,1.09,1.09,0,0,0,.45-.64A3.17,3.17,0,0,0,40.59,14.88ZM38,20.71a.71.71,0,0,0,.37-.18c.09-.1.09-.19,0-.19a.66.66,0,0,0-.37.19C37.86,20.71,37.86,20.71,38,20.71Zm1.82-2.19a.19.19,0,0,0-.18-.18,3.54,3.54,0,0,0-.54.18l-.55.28a2.3,2.3,0,0,0-.46.36.33.33,0,0,0-.09.27,2.19,2.19,0,0,0,.73-.18,3.65,3.65,0,0,0,.82-.36A.34.34,0,0,0,39.86,18.52ZM39,23.16c.09-.27.09-.36,0-.36s-.18.18-.36.36c-.18.37-.27.46-.27.55a.56.56,0,0,0,.36-.18A.48.48,0,0,0,39,23.16ZM39.23,21c0-.09-.09-.09-.19-.09a1.29,1.29,0,0,0-.27.18c-.18.09-.36.18-.36.27h0c.09,0,.18-.09.36-.18C39.14,21.16,39.23,21,39.23,21Zm2.45-9.92a.47.47,0,0,0-.45-.37.49.49,0,0,0-.46.37c-.09.09-.09.27-.18.36s-.09.28,0,.37a.31.31,0,0,0,.09.18,3.53,3.53,0,0,0,.55-.18c.27-.09.45-.18.45-.28C41.87,11.51,41.87,11.33,41.68,11.06ZM44,14.52c0-.09.09-.18.36-.28a1.67,1.67,0,0,1,.46-.09,10.08,10.08,0,0,0,1.09.46c1.18.54,1.82,1,1.73,1.36,0,.19-.27.28-.64.19a1.51,1.51,0,0,1-.91-.28,8,8,0,0,0-1.27-.82C44.23,14.79,44,14.61,44,14.52Z" transform="translate(0)"/></g><path d="M4,35.84H4l0,0h.59l.23,0,.26,0h1a.1.1,0,0,0,.07,0h.11a.11.11,0,0,1,.12,0v0l0,0a.1.1,0,0,0,0,0l0,.05a.85.85,0,0,1,0,.09l0,.06a.28.28,0,0,0,0,.09v.07a.12.12,0,0,1,0,.08.15.15,0,0,1-.09,0l0,0,0,0H6.15l-.09,0-.07,0H5.9l-.15,0-.16,0-.16,0a.74.74,0,0,0-.27,0l-.28,0H4.11l-.27,0H3.53a.64.64,0,0,0-.2,0l-.11,0H3.13l-.11,0-.24,0a.88.88,0,0,0-.23.07l-.08,0H2.4l0,0h0l0,0a.33.33,0,0,1-.18,0,.36.36,0,0,1-.19-.07l-.17-.21a.45.45,0,0,0-.07-.09s0,0,0,0a.1.1,0,0,0,0,0,.26.26,0,0,0,0-.13s0-.07,0-.09,0,0,.07-.07l.05,0,0,0s.07,0,.09,0a.16.16,0,0,0,.09,0H2a.05.05,0,0,1,0,0,.2.2,0,0,1,.11,0l.12,0h.1a.18.18,0,0,0,.11,0H3.1l.49,0Z" transform="translate(0)"/><path d="M11.28,32a.22.22,0,0,1,.16,0,.3.3,0,0,1,.18,0,.94.94,0,0,1,.26.28,1.45,1.45,0,0,1,.11.39,1.7,1.7,0,0,0,.12.46s.1,0,.23,0a.84.84,0,0,1,.32,0,1,1,0,0,1,.25.19.84.84,0,0,0,.25.2c.1.06,0,.15-.19.27a.85.85,0,0,0-.24.16s0,.08,0,.1a1.19,1.19,0,0,0,.32.07,1.39,1.39,0,0,1,.35.07,1.06,1.06,0,0,1,.28.2q.12.1.09.15a1,1,0,0,1-.26.16,3.67,3.67,0,0,0-.59.39l-.31.23a.23.23,0,0,0,0,.14c.06.33.11.49.15.49s.06,0,.1-.12a2.43,2.43,0,0,1,.15-.26.7.7,0,0,0,.11-.27.45.45,0,0,1,.12-.24c.06-.08.11-.12.16-.12a1.1,1.1,0,0,1,.29.11,1.15,1.15,0,0,1,.27.17c.09.11.12.2.08.29a1.63,1.63,0,0,1-.38.46,5.42,5.42,0,0,0-.48.52.5.5,0,0,0-.12.28,2.61,2.61,0,0,0,.44,1l.15.24v-.29a5,5,0,0,1,0-.54,3.63,3.63,0,0,1,0-.38c0-.09,0-.13,0-.13a2.16,2.16,0,0,1,.22.71,6.55,6.55,0,0,0,.2.65,7.19,7.19,0,0,0,.27.69,3.32,3.32,0,0,1,.28.85.31.31,0,0,1,0,.14.21.21,0,0,1-.06.08.38.38,0,0,1-.22.06.73.73,0,0,1-.48-.2,1.21,1.21,0,0,1-.34-.52A8.66,8.66,0,0,0,13,38c-.15-.26-.26-.46-.32-.58l-.1-.18-.24.14a3.2,3.2,0,0,1-.76.27,5.4,5.4,0,0,1-.79.13h-.12a.26.26,0,0,1,0-.07.42.42,0,0,1,.17-.15l.33-.2.33-.21a2.71,2.71,0,0,0,.43-.36,1,1,0,0,0,.26-.33,1.2,1.2,0,0,0-.07-.44c-.05-.15-.09-.24-.13-.24s-.16,0-.36.19-.44.3-.6.42a1.11,1.11,0,0,1-.63.27.14.14,0,0,1-.13,0,1,1,0,0,1-.1-.18.94.94,0,0,1-.09-.31.63.63,0,0,1,.05-.21c0-.08.08-.13.12-.14a2,2,0,0,0,.27-.32,7.25,7.25,0,0,1,.59-.67c.25-.26.37-.4.35-.42a2.19,2.19,0,0,0-.41,0,1.5,1.5,0,0,0-.54.07.92.92,0,0,0-.34.32.83.83,0,0,0-.12.22.69.69,0,0,0,0,.23,3.23,3.23,0,0,1-.14,1c-.06.19-.14.53-.26,1s-.2.86-.23,1.07-.09.45-.14.62-.08.3-.1.4a.29.29,0,0,1-.09.2s0,0-.07,0,0,0-.06,0a.22.22,0,0,0-.16,0c-.07,0-.14-.06-.23-.18A1.68,1.68,0,0,1,8.43,39a2.42,2.42,0,0,1,0-.42c0-.22.06-.4.09-.55a4,4,0,0,0,.07-.55,1.1,1.1,0,0,0,0-.4s-.08,0-.16.09a1.09,1.09,0,0,0-.21.26q-.17.25-.27.12a.15.15,0,0,0-.13-.06.1.1,0,0,1-.09,0,.47.47,0,0,1-.08-.15,1,1,0,0,1-.06-.24,1.38,1.38,0,0,1,0-.26,1.25,1.25,0,0,1,.29-.45,3.23,3.23,0,0,0,.59-.86l.09-.27A.76.76,0,0,0,8.66,35c0-.05,0-.07,0-.08a.5.5,0,0,0-.23.13,1.3,1.3,0,0,0-.26.27s-.05,0-.12,0a.16.16,0,0,0-.18,0l-.1,0s0,0,0-.06a.26.26,0,0,0,0-.13s0,0-.07,0,0,0-.06,0v-.58l.26-.24a4,4,0,0,0,.52-.58,2.69,2.69,0,0,0,.38-.57A4.94,4.94,0,0,0,9,32.37c0-.17.11-.27.22-.3s.22,0,.35.16a2.83,2.83,0,0,1,.35.45,1.52,1.52,0,0,1,.2.37.53.53,0,0,0,.06.2.46.46,0,0,1,0,.27.38.38,0,0,1-.1.23.54.54,0,0,1-.24.11,1.7,1.7,0,0,0-.35.14.8.8,0,0,0-.34.3.38.38,0,0,0,0,.36.62.62,0,0,1,.1.29,2.43,2.43,0,0,1-.33.94,1.25,1.25,0,0,0-.16.38.19.19,0,0,0,.06.17.94.94,0,0,1,.19.25c.07.11.11.16.13.16s.12-.18.25-.53.25-.72.34-1.07a2.71,2.71,0,0,1,.5-1.17,1.47,1.47,0,0,1,.27-.16c.13-.07.19-.11.19-.14s0,0,0,0l.22-.11a.72.72,0,0,1,.26-.12s.05,0,.05,0a.31.31,0,0,0,0-.16,3.15,3.15,0,0,1,0-.54.14.14,0,0,1,0,0,.21.21,0,0,1,.07.15c0,.06,0,.07,0,0a2.89,2.89,0,0,0-.1-.53C11.28,32.18,11.25,32,11.28,32Zm.55,3.09a.45.45,0,0,0,0-.25c0-.12-.05-.18-.08-.18s-.26.17-.58.5-.49.53-.49.59.07,0,.2-.07l.46-.26A3,3,0,0,0,11.83,35.06Zm.78-.65a.25.25,0,0,0-.14,0s-.07.05-.07.15v.16l.11-.06C12.66,34.54,12.69,34.47,12.61,34.41Zm.87-2.25a1.4,1.4,0,0,1,.35-.12.8.8,0,0,1,.28.07,1.09,1.09,0,0,1,.46.32.45.45,0,0,1,.14.4.12.12,0,0,1-.05.08.43.43,0,0,1-.19,0,1.9,1.9,0,0,1-.75-.31l-.32-.16c-.15-.07-.22-.11-.22-.13S13.28,32.24,13.48,32.16Z" transform="translate(0)"/><path d="M18.79,32.87c.13-.08.52,0,1.18.3a1.79,1.79,0,0,1,.42.25,1.28,1.28,0,0,1,.28.31.44.44,0,0,0,.11.17A.46.46,0,0,0,21,34a3.38,3.38,0,0,0,.47,0,4.15,4.15,0,0,1,.55,0,1.19,1.19,0,0,1,.31.07,1.2,1.2,0,0,1,.39.21,1.38,1.38,0,0,1,.27.41l.12.23L23,35a.69.69,0,0,1-.19.24.32.32,0,0,0-.13.09l-.17.12a.57.57,0,0,1-.16.07,4.35,4.35,0,0,0-.69.31l-.64.31,0,.17,0,.32c0,.1,0,.22-.06.37l0,.22.28-.05a1.58,1.58,0,0,0,.31-.07A3,3,0,0,1,22,37a5.34,5.34,0,0,1,.69-.06L23,37a.59.59,0,0,1,.22.08,1.24,1.24,0,0,1,.32.23.35.35,0,0,1,.1.15.68.68,0,0,1,0,.27,1.14,1.14,0,0,1,0,.25.26.26,0,0,1-.09.09.27.27,0,0,1-.13,0,1,1,0,0,1-.22-.07,2.19,2.19,0,0,0-1.07-.13l-.66.15a3.22,3.22,0,0,0-.61.21,1.77,1.77,0,0,1-.43.11l-.56.12-.7.18a6.73,6.73,0,0,0-.92.27.88.88,0,0,1-.31.09.44.44,0,0,1-.37-.23.93.93,0,0,1-.21-.49.77.77,0,0,1,.07-.48.31.31,0,0,1,.2-.14.11.11,0,0,1,.14.09.12.12,0,0,0,.05.1,1.76,1.76,0,0,0,.63,0,2.75,2.75,0,0,0,.68-.11.69.69,0,0,1,.23-.09.62.62,0,0,0,.25-.07s0-.1,0-.23a.92.92,0,0,0-.08-.33c0-.05,0-.07,0-.09a.3.3,0,0,1,.06-.09.47.47,0,0,0,.1-.26,2.33,2.33,0,0,0,0-.52,4.42,4.42,0,0,0-.13-.67,1.09,1.09,0,0,0-.15-.41,3.63,3.63,0,0,1-.37-.8.71.71,0,0,0-.08-.21.27.27,0,0,1-.05-.18,1.25,1.25,0,0,0-.08-.33,1,1,0,0,1-.06-.37C18.71,33,18.74,32.9,18.79,32.87Zm2.56,2.43a.51.51,0,0,0-.19-.06.2.2,0,0,0-.16,0,.4.4,0,0,0,0,.2c0,.17,0,.26.08.26s.1-.05.2-.15.15-.16.15-.19S21.38,35.32,21.35,35.3Z" transform="translate(0)"/><path d="M27.45,32.4a1,1,0,0,1,0-.3s.07-.06.16-.06a.45.45,0,0,1,.31.16,1.86,1.86,0,0,1,.44,1.17l0,.25.23.15c.15.09.22.16.22.2s0,.11-.13.22-.15.28,0,.3a.16.16,0,0,0,.15-.1.18.18,0,0,1,.12-.12.15.15,0,0,1,.15,0s0,.09-.05.2a3.18,3.18,0,0,0-.18.37,3,3,0,0,1-.26.48,3,3,0,0,0-.41,1.16c0,.41-.06,1.23,0,2.45a1,1,0,0,1-.07.5.34.34,0,0,1-.1.13.12.12,0,0,1-.09,0,.1.1,0,0,1-.06-.08c0-.09-.1-.11-.21,0a.1.1,0,0,1-.09,0l-.08-.13a3.51,3.51,0,0,1-.24-.91c-.05-.25-.07-.38-.08-.39a1.87,1.87,0,0,0-.3.32,1.87,1.87,0,0,1-.33.35.3.3,0,0,1-.18,0,.23.23,0,0,0-.23,0c-.08,0-.11,0-.12,0a1.34,1.34,0,0,1-.07-.58,1.36,1.36,0,0,1,.13-.37,2.11,2.11,0,0,1,.23-.39c0-.06.17-.3.38-.72l.37-.72a2.91,2.91,0,0,0,.26-.71c0-.17,0-.28,0-.31s-.13,0-.29,0a2.55,2.55,0,0,1-.59,0,3.39,3.39,0,0,1-.68-.09,1.6,1.6,0,0,1-.4-.14c-.15-.07-.22-.12-.22-.14s.42-.3,1.26-.58c.66-.22,1-.41,1.08-.58a.74.74,0,0,0,0-.28,1.46,1.46,0,0,1,0-.35A.79.79,0,0,0,27.45,32.4Zm2.95-.22a.71.71,0,0,1,.67.07,1.4,1.4,0,0,1,.44.34.59.59,0,0,1,.17.37.22.22,0,0,0,0,.1.27.27,0,0,0,.11.06,1.37,1.37,0,0,1,.26.17c.1.1.16.16.16.2s0,0-.13.1a3.76,3.76,0,0,0-.65.46c-.24.19-.35.31-.35.36s.18,0,.55,0h.51a.43.43,0,0,1,.23.07,1.16,1.16,0,0,1,.31.22c.08.09.14.13.17.13a.14.14,0,0,1,.09,0s0,.07,0,.12l-.36.19a1.75,1.75,0,0,1-.34.14,1.37,1.37,0,0,0-.28.1,3.94,3.94,0,0,1-.53.21.38.38,0,0,0-.2.14.15.15,0,0,0,0,.13s.08.16.18.34a2,2,0,0,1,.2.48.27.27,0,0,1-.06.25.43.43,0,0,0-.15.39c0,.06,0,.1.1.15a4.91,4.91,0,0,0,.49.26,6.12,6.12,0,0,0,.79.37,1.81,1.81,0,0,1,.58.38,2.27,2.27,0,0,1,.49.53.8.8,0,0,1,.14.27s0,.06-.12.1a.56.56,0,0,1-.22.06.42.42,0,0,1-.23,0,.9.9,0,0,0-.39-.07,3,3,0,0,1-.48-.05.68.68,0,0,1-.32-.1.07.07,0,0,1,0-.1.12.12,0,0,1,.12-.06.2.2,0,0,0,.15-.09c.05-.06.07-.11.05-.16s-.08-.07-.21-.11l-.72-.34-.54-.25-.07.1a3.47,3.47,0,0,1-.23.28,1.72,1.72,0,0,1-.23.2c-.27.2-.42.26-.46.16s-.07-.06-.19-.06a1.73,1.73,0,0,1-.37,0,.71.71,0,0,1-.21-.08,1.08,1.08,0,0,1-.2-.19,1.92,1.92,0,0,1-.33-.45.68.68,0,0,1-.09-.22.2.2,0,0,1,0-.14.52.52,0,0,1,.16-.19,1.36,1.36,0,0,1,.34-.16A4,4,0,0,1,30,37.1a1.32,1.32,0,0,1,.53,0l.14,0,.07-.05a1,1,0,0,0,.13-.35,2.73,2.73,0,0,0,.05-.5,1.3,1.3,0,0,1,.05-.4.36.36,0,0,1,.17-.2,2,2,0,0,0,.48-.38l.11-.14L31.47,35c-.28-.19-.5-.24-.65-.17a2.89,2.89,0,0,0-.62.61,4.57,4.57,0,0,0-.59.84c-.09.17-.17.23-.23.18l-.21-.09a.57.57,0,0,1-.19-.07,1.23,1.23,0,0,1,0-.3.87.87,0,0,1,.27-.76c.22-.19.41-.38.58-.55a1.2,1.2,0,0,0,.26-.29s0-.05-.13-.07a2.21,2.21,0,0,1-.49-.17c-.2-.09-.3-.14-.3-.17a2.84,2.84,0,0,1,.65-.36,3.91,3.91,0,0,0,.65-.36.43.43,0,0,0,.13-.32.27.27,0,0,0,0-.17,1.33,1.33,0,0,0-.22-.19,1.89,1.89,0,0,1-.32-.26l.12-.06Zm-.16,5.45a.92.92,0,0,0-.36,0,1.57,1.57,0,0,0-.37,0,1.4,1.4,0,0,0-.29.16c-.09.07-.14.13-.14.17s0,.1.13.18a.74.74,0,0,0,.26.14.28.28,0,0,0,.15,0l.18-.07a1.64,1.64,0,0,0,.37-.27c.13-.12.2-.2.19-.25S30.31,37.65,30.24,37.63Z" transform="translate(0)"/><path d="M38.06,32.73a.84.84,0,0,1,.37-.1,1.1,1.1,0,0,1,.38,0,.4.4,0,0,1,.19.16c.07.12.09.2.07.26s-.11.14-.26.24a1.35,1.35,0,0,0-.33.27,2,2,0,0,1-.21.24,1.07,1.07,0,0,0-.2.26.37.37,0,0,0,0,.15.7.7,0,0,0,.08.2,2.17,2.17,0,0,1,.12.67,1.67,1.67,0,0,0,.05.49s.08,0,.2-.08a1.6,1.6,0,0,0,.32-.2c.05,0,.08-.07.08-.09s0,0-.05,0-.1,0-.1-.08.09,0,.27-.07a1.12,1.12,0,0,1,.42,0c.23.05.26.14.11.28l-.26.18a7.14,7.14,0,0,0-1,.7,2.12,2.12,0,0,0-.07.52,1.9,1.9,0,0,0,0,.57l0,.12.36-.4c.24-.26.47-.51.68-.72s.3-.31.32-.28v0c0,.05-.12.25-.41.57a10.82,10.82,0,0,0-.85,1.09,1.6,1.6,0,0,0-.2.69,1.93,1.93,0,0,1-.08.43.52.52,0,0,1-.2.22c-.13.1-.23.13-.29.08s-.11-.17-.13-.37a1,1,0,0,1,.1-.5,5.72,5.72,0,0,0,.21-1,2.17,2.17,0,0,0,.05-.8s-.12,0-.29.09a3.27,3.27,0,0,0-.54.33,3.69,3.69,0,0,1-1.11.58.59.59,0,0,1-.64-.2.26.26,0,0,1-.06-.23,1.68,1.68,0,0,1,.28-.33c.33-.33.73-.77,1.19-1.31a14.59,14.59,0,0,0,.91-1.14.53.53,0,0,1,.21-.21.64.64,0,0,0,.19-.18.42.42,0,0,0,.08-.22s0-.08,0-.08a.41.41,0,0,0-.17,0,3.53,3.53,0,0,1-.5,0,1,1,0,0,1-.28,0,.63.63,0,0,1-.21-.1,1,1,0,0,1-.26-.22c-.07-.09-.06-.16.05-.19L37,33A2.48,2.48,0,0,0,38.06,32.73Zm-.29,2s-.06-.07-.1-.07a3.24,3.24,0,0,0-.47.44,5.82,5.82,0,0,0-.54.59,7.56,7.56,0,0,1-.67.75,3.47,3.47,0,0,1-.6.57c-.09,0-.11.06,0,.08h.16a1.81,1.81,0,0,0,.87-.41c.14-.1.43-.26.84-.48l.64-.31v-.55A1.59,1.59,0,0,0,37.77,34.68Zm2.59.19c.1-.15.17-.19.22-.11a.56.56,0,0,1,0,.24,1.23,1.23,0,0,0,0,.51,1.2,1.2,0,0,1,0,.54c-.08.26-.19.38-.35.38S40,36.28,40,36a3.22,3.22,0,0,1-.07-.61,1.9,1.9,0,0,1,0-.52s.08,0,.19.07l.19.09A.44.44,0,0,0,40.36,34.87Zm.83-3.2c.06-.06.18-.07.36,0a.72.72,0,0,1,.38.22,2.15,2.15,0,0,1,.12,1.22,22.11,22.11,0,0,0,.13,3,9.74,9.74,0,0,1,0,1.26,2.86,2.86,0,0,1-.11.91,6.71,6.71,0,0,0,0,.74,3.17,3.17,0,0,1,0,.59.55.55,0,0,1,0,.25.35.35,0,0,1-.17.12.45.45,0,0,1-.24.07.37.37,0,0,1-.17-.13,1.53,1.53,0,0,0-.15-.19,4.06,4.06,0,0,1-.59-.77,2.57,2.57,0,0,1-.4-.73.21.21,0,0,1,0-.1.11.11,0,0,1,.09,0,4.09,4.09,0,0,1,.5.45c.3.3.47.44.5.43a22,22,0,0,0,.13-4.1c0-1.59,0-2.44,0-2.54A.66.66,0,0,0,41.5,32a.61.61,0,0,0-.2-.19l-.12-.09A.06.06,0,0,1,41.19,31.67Z" transform="translate(0)"/><path d="M45.78,35.84h0l0,0h.58l.24,0,.26,0h1a.1.1,0,0,0,.07,0h.11a.11.11,0,0,1,.12,0v.07l0,0,0,.05a.41.41,0,0,1,0,.09.16.16,0,0,0,0,.06.14.14,0,0,0,0,.09v.07a.24.24,0,0,1,0,.08.19.19,0,0,1-.1,0,.06.06,0,0,1,0,0l0,0s0,0,0,0h-.09l-.09,0-.07,0h-.09l-.15,0-.16,0-.16,0a.74.74,0,0,0-.27,0l-.28,0h-.78l-.26,0h-.31a.64.64,0,0,0-.2,0l-.11,0h-.09l-.11,0-.24,0a1,1,0,0,0-.24.07l-.07,0h-.07l0,0h0l0,0a.33.33,0,0,1-.18,0,.36.36,0,0,1-.19-.07l-.18-.21-.06-.09s0,0,0,0a.1.1,0,0,0,0,0,.26.26,0,0,0,0-.13s0-.07,0-.09,0,0,.07-.07l0,0,0,0s.07,0,.09,0a.18.18,0,0,0,.09,0h0l.05,0a.16.16,0,0,1,.1,0l.13,0h.1s.06,0,.11,0h.59l.49,0Z" transform="translate(0)"/></svg>