<?xml version="1.0" encoding="utf-8"?>
<!-- Generator: Adobe Illustrator 23.0.1, SVG Export Plug-In . SVG Version: 6.00 Build 0)  -->
<svg version="1.1" id="图层_1" xmlns="http://www.w3.org/2000/svg" xmlns:xlink="http://www.w3.org/1999/xlink" x="0px" y="0px"
	 viewBox="0 0 48.3 50" style="enable-background:new 0 0 48.3 50;" xml:space="preserve">
<style type="text/css">
	.st0{fill-rule:evenodd;clip-rule:evenodd;fill:#FFFFFF;}
	.st1{fill-rule:evenodd;clip-rule:evenodd;}
	.st2{fill-rule:evenodd;clip-rule:evenodd;fill:#FF0000;}
	.st3{fill-rule:evenodd;clip-rule:evenodd;fill:#1B42C5;}
	.st4{fill-rule:evenodd;clip-rule:evenodd;fill:#F9021F;}
</style>
<g id="圆角矩形_1">
	<path class="st0" d="M15,35.4L2.3,34.1h0c-0.5,0-0.9-0.1-1.2-0.4c-0.3-0.2-0.4-0.5-0.4-0.8l0.5-10.6v0c0-0.3,0.2-0.6,0.4-0.8
		c0.2-0.2,0.6-0.4,1-0.4c0,0,0,0,0.1,0c3.2,1.2,6.5,1.9,9.8,2.1c0.4,0,0.7,0,1,0c4.3,0,7.4-1,11-2.1c1.4-0.5,2.9-0.9,4.6-1.4
		c3.9-1,8-1.6,12.1-1.7c0.5,0,0.9,0.1,1.2,0.4c0.3,0.2,0.4,0.5,0.4,0.7l-4.8,17.1v0.1c0,0.3-0.2,0.6-0.4,0.8
		c-0.3,0.3-0.7,0.4-1.2,0.4l-14-1.5c0,0-5.1,7.9-7.6,11.7L15,35.4z"/>
	<path d="M41.2,18.7c0.3,0,0.6,0.1,0.8,0.3c0.1,0,0.1,0.1,0.2,0.2l-4.7,16.9l0,0.2v0.2c0,0.1-0.1,0.3-0.2,0.3
		C37,36.9,36.8,37,36.5,37l-13.6-1.4l-0.8-0.1l-0.4,0.6c-2.1,3.2-4.1,6.4-6.2,9.6l0.1-4.2l0.1-5.4l0-1.1l-1.1-0.1L2.4,33.5l-0.1,0
		H2.3c-0.3,0-0.6-0.1-0.8-0.3c-0.1-0.1-0.2-0.2-0.2-0.3l0.5-10.5l0,0v0c0-0.1,0.1-0.3,0.2-0.3c0.2-0.2,0.4-0.3,0.6-0.3
		c3.3,1.2,6.6,1.9,9.9,2.1c0.4,0,0.7,0,1.1,0c4.4,0,7.7-1,11.1-2.1c1.4-0.5,2.9-0.9,4.6-1.4c1.9-0.5,3.9-0.9,5.9-1.2
		C37.1,18.9,39.2,18.7,41.2,18.7 M41.2,17.4c-4.2,0.1-8.3,0.7-12.3,1.7c-5.8,1.5-9.5,3.5-15.4,3.5c-0.3,0-0.7,0-1,0
		c-3.3-0.1-6.6-0.8-9.7-2c-0.1,0-0.1,0-0.2,0c-0.5,0-1,0.2-1.4,0.5c-0.4,0.3-0.7,0.8-0.7,1.3L0,32.9c0,1,1,1.8,2.3,1.8L14.4,36
		c-0.1,4.7-0.1,9.3-0.2,14c2.9-4.4,5.7-8.8,8.6-13.2l13.7,1.4c1.3,0,2.3-0.8,2.3-1.8l4.8-17.1C43.5,18.3,42.5,17.4,41.2,17.4
		L41.2,17.4z"/>
</g>
<g id="矩形_1">
	<path d="M35.9,29.5L35,34.1l-3.1,0.8L27.8,34l0.7-4.2l3.7,0.4l0.1,0l0.1,0L35.9,29.5 M36.8,28.5l-4.6,1L27.9,29l-1,5.6l4.9,1.1
		l3.8-1L36.8,28.5L36.8,28.5z"/>
</g>
<path id="形状_1" class="st1" d="M32,29.7l0.8,0.1L32,35.5l-0.8-0.1L32,29.7z"/>
<g id="椭圆_1">
	<path d="M36,20.7c0.8,0,1.6,0.3,2.2,0.9S39,23,39,23.8s-0.3,1.6-0.9,2.2c-0.6,0.6-1.3,0.9-2.2,0.9c-0.8,0-1.6-0.3-2.2-0.9
		c-0.6-0.6-0.9-1.3-0.9-2.2c0-0.8,0.3-1.6,0.9-2.2C34.4,21.1,35.2,20.7,36,20.7 M36,20c-2.1,0-3.8,1.7-3.8,3.8s1.7,3.8,3.8,3.8
		s3.8-1.7,3.8-3.8C39.8,21.7,38.1,20,36,20L36,20z"/>
</g>
<path id="形状_2" class="st2" d="M39.3,20.1l-1.1-1l4.9-5.5l1.1,1L39.3,20.1z"/>
<path id="形状_3" class="st2" d="M41.4,23.6l-0.3-1.5l6.9-1.5l0.3,1.5L41.4,23.6z"/>
<path id="形状_4" class="st2" d="M40.1,27.5l0.6-1.4l6.2,2.6l-0.6,1.4L40.1,27.5z"/>
<g id="多边形_1">
	<path class="st3" d="M15.7,20.2c1.4-1.4,2.3-3.1,2.5-5c0.2-1.2,0.1-2.4-0.3-3.6c0.8-1,1.8-1.8,2.9-2.4c1.2-0.6,2.5-1,3.9-1.1
		c1.4,0.5,2.6,1.6,3.3,2.9c0.7,1.4,0.8,3,0.3,4.5c-0.2,0.5-0.4,0.9-0.7,1.4c-0.3,0-0.6,0-0.9,0c-1,0-2,0.1-3,0.4
		c-1,0.3-1.8,0.7-2.5,1.2c-0.4,0.2-0.8,0.4-1.2,0.6C18.7,19.8,17.3,20.1,15.7,20.2z"/>
	<path d="M24.6,8.8c1.2,0.5,2.2,1.4,2.8,2.6c0.6,1.3,0.7,2.7,0.3,4c-0.1,0.3-0.2,0.6-0.4,0.9c-0.2,0-0.4,0-0.6,0
		c-1.1,0-2.1,0.2-3.2,0.5c-1.1,0.3-1.9,0.8-2.6,1.2c-0.4,0.2-0.7,0.4-1.1,0.6c-0.7,0.3-1.5,0.6-2.3,0.8c-0.1,0-0.2,0-0.3,0.1
		c0.9-1.2,1.4-2.6,1.6-4.1c0.2-1.2,0.1-2.4-0.2-3.5c0.3-0.3,0.6-0.6,0.9-0.9c0.5-0.4,1-0.8,1.6-1.1c0.6-0.3,1.2-0.5,1.8-0.7
		C23.4,8.9,24,8.8,24.6,8.8 M24.8,7.5c-3,0.1-5.8,1.6-7.6,4c0.4,1.2,0.5,2.4,0.4,3.6c-0.3,2.3-1.7,4.3-3.6,5.7c0.3,0,0.6,0,0.9,0
		c2.1,0,3.9-0.4,5.5-1.2c1.3-0.6,2.2-1.3,3.6-1.8c0.9-0.3,1.9-0.4,2.8-0.4c0.4,0,0.8,0,1.2,0.1c0.4-0.5,0.7-1.2,1-1.8
		C30,12.4,28.2,8.7,24.8,7.5L24.8,7.5z"/>
</g>
<g id="多边形_2">
	<path class="st4" d="M16.9,8.8c-1.1-3.2-3.1-6-5.7-8.1c0.6-0.1,1.2-0.1,1.8-0.1c1.9,0,3.8,0.5,5.4,1.3c1.7,0.9,3.2,2.2,4.3,3.8
		C20.5,6.1,18.4,7.2,16.9,8.8z"/>
	<path d="M13,1.3c0.9,0,1.8,0.1,2.6,0.3c0.9,0.2,1.7,0.5,2.5,0.9c1.4,0.7,2.5,1.7,3.5,2.8c-1.7,0.4-3.2,1.2-4.5,2.4
		c-1-2.5-2.5-4.7-4.4-6.5C12.8,1.3,12.9,1.3,13,1.3L13,1.3 M13,0c-1.1,0-2.2,0.1-3.3,0.4c3.4,2.3,5.9,5.7,7,9.7
		c1.7-2.3,4.3-3.8,7.2-3.9c-1.2-2.1-3-3.8-5.1-4.9C17,0.5,15,0,13,0L13,0z"/>
</g>
<path id="_" class="st1" d="M25,28.5c-0.2-0.3-0.4-0.4-0.7-0.5c-0.3-0.1-0.6-0.1-0.9,0.1c-0.3,0.2-0.5,0.4-0.5,0.7
	c-0.1,0.3,0,0.6,0.1,0.8c0.1,0.3,0.3,0.4,0.6,0.6l-0.2,0.7l-0.9-0.2l-0.1,0.4l0.9,0.2l-0.3,1.1l0.4,0.1l0.3-1.1l0.9,0.2l0.1-0.4
	l-0.9-0.2l0.2-0.7c0.3,0,0.5,0,0.8-0.2c0.2-0.2,0.4-0.4,0.5-0.7C25.2,29,25.2,28.7,25,28.5L25,28.5z M24.4,29.7
	c-0.2,0.1-0.4,0.1-0.6,0.1c-0.2,0-0.4-0.2-0.5-0.4c-0.1-0.2-0.1-0.4-0.1-0.6c0.1-0.2,0.2-0.4,0.4-0.5c0.4-0.2,0.9-0.1,1.1,0.3
	c0.1,0.2,0.1,0.4,0.1,0.6C24.7,29.5,24.6,29.6,24.4,29.7z"/>
<path id="_2" class="st1" d="M25.8,30.5l-1.7,0.7l0.1,0.4l1-0.4l-0.6,1.3c-0.1,0-0.2-0.1-0.4-0.1c-0.3,0-0.6,0.1-0.8,0.3
	c-0.2,0.2-0.3,0.5-0.3,0.9c0,0.3,0.1,0.6,0.4,0.8c0.2,0.2,0.5,0.3,0.8,0.3c0.3,0,0.6-0.1,0.8-0.3c0.2-0.2,0.3-0.5,0.3-0.8
	c0-0.2,0-0.4-0.1-0.5c-0.1-0.2-0.2-0.3-0.4-0.4l0.6-1.2l0.2,1.1l0.4-0.1L25.8,30.5z M24.9,34.1c-0.2,0.1-0.4,0.2-0.6,0.2
	c-0.2,0-0.4-0.1-0.6-0.2c-0.1-0.1-0.2-0.3-0.2-0.6c0-0.2,0.1-0.4,0.2-0.6c0.1-0.1,0.4-0.2,0.6-0.2c0.2,0,0.4,0.1,0.6,0.2
	c0.2,0.1,0.2,0.3,0.2,0.6C25.1,33.7,25,33.9,24.9,34.1z"/>
<g id="形状_5">
	<path d="M3.5,27.4l2.7,3.2l-0.8-0.1l-0.9-0.1l0.4,0.8l0.5,0.9l0,0.3l0,0l-0.2,0l-0.8-1.2l-0.3-0.5l-0.4,0.4l-0.5,0.5L3.5,27.4
		 M3.1,26.5l-0.5,5.7l0.7,0.1L4,31.6L4.9,33l0.6,0l0.4-0.3l0-0.6L5.4,31l1.3,0.1l0.1-0.7l-3.4-4L3.1,26.5L3.1,26.5z"/>
</g>
<g id="圆角矩形_2">
	<path d="M9.3,29.1L9.3,29.1C9.3,29.1,9.3,29.1,9.3,29.1l4.3,0.5c0.2,0,0.4,0.2,0.4,0.5l0,0l-0.3,2.7c0,0.2-0.2,0.4-0.4,0.4
		c0,0,0,0-0.1,0l-4.2-0.5c-0.2,0-0.4-0.2-0.4-0.5l0.3-2.7C8.9,29.3,9.1,29.1,9.3,29.1 M9.3,28.6c-0.5,0-0.8,0.3-0.9,0.8L8,32.1
		c-0.1,0.5,0.3,1,0.8,1l4.2,0.5c0,0,0.1,0,0.1,0c0.5,0,0.9-0.3,0.9-0.8l0.3-2.7l0,0c0.1-0.5-0.3-1-0.8-1l-4.2-0.5l0,0
		C9.3,28.6,9.3,28.6,9.3,28.6L9.3,28.6z"/>
</g>
<g id="多边形_5">
	<path d="M10.6,30.2l1.3,1l-1.5,0.6L10.6,30.2 M10.4,29.7l-0.3,2.5l2.3-1L10.4,29.7L10.4,29.7z"/>
</g>
<path d="M36,27.6c-0.8-0.1-1.5-0.4-2.2-0.6c-0.1-0.1-0.3-0.1-0.4-0.2c-0.3-0.1-0.7-0.3-1.1-0.5c-0.7-0.3-1.4-0.7-2.2-0.9
	c-1.1-0.2-2.3-0.1-3.5,0.4l-0.9,0.3l0.4-0.8c0.5-1,1.1-1.9,1.9-2.5c1.3-1.1,2.1-1.2,3.1-1.3c0.3,0,0.5-0.1,0.8-0.1
	c1.1-0.2,2.3-0.6,3.3-1.2l0.3,0.7c-1.1,0.6-2.3,1-3.5,1.3c-0.3,0.1-0.6,0.1-0.8,0.2c-0.9,0.2-1.6,0.3-2.7,1.2
	c-0.5,0.4-0.9,0.9-1.2,1.4c1-0.3,2.1-0.3,3-0.1c0.9,0.2,1.7,0.6,2.4,0.9c0.4,0.2,0.7,0.3,1,0.5c0.1,0.1,0.3,0.1,0.4,0.2
	c0.7,0.3,1.4,0.5,2.1,0.6L36,27.6z"/>
<g id="矩形_3">
	<path d="M19.7,25.2l1.5,0.3l-2.4,11.4l-1.5-0.3L19.7,25.2 M19.1,24.4l-2.8,12.8l3,0.6L22.1,25L19.1,24.4L19.1,24.4z"/>
</g>
<g id="多边形_3">
	<polygon points="16.3,37.2 17.2,40.2 19.3,37.8 	"/>
</g>
<path d="M6.8,27.7c-0.2,0-0.4,0-0.7-0.1c-0.7-0.3-1.2-0.9-1.2-1.6c0-0.8,0.7-1.5,1.6-1.6c0.6-0.1,1.3,0.2,1.7,0.8L8,25.2
	c-0.3-0.5-0.9-0.7-1.5-0.7c-0.7,0.1-1.3,0.7-1.4,1.4c0,0.6,0.4,1.2,1,1.4c0.4,0.2,0.9,0.1,1.4-0.1c0.3-0.2,0.7-0.5,1-0.7
	c0.3-0.2,0.6-0.5,1-0.7l0,0l0,0c0.2-0.1,0.5-0.1,0.8,0c0.2,0.1,0.3,0.4,0.3,0.6c0,0.3-0.1,0.5-0.3,0.6C10,27.1,9.7,27,9.5,26.9l0,0
	l-0.4-0.5c-0.1,0.1-0.2,0.2-0.4,0.3c-0.3,0.2-0.7,0.5-1,0.7l0,0l0,0C7.4,27.6,7.1,27.7,6.8,27.7z M9.6,26.7c0.2,0.1,0.4,0.1,0.5,0
	c0.1-0.1,0.2-0.2,0.2-0.4c0-0.2-0.1-0.3-0.2-0.4c-0.1-0.1-0.3-0.1-0.5,0c-0.1,0.1-0.3,0.2-0.4,0.3L9.6,26.7z"/>
<path d="M9.9,28c-0.6,0-1.2-0.3-1.5-0.8l0.2-0.2c0.3,0.5,0.9,0.7,1.5,0.7c0.7-0.1,1.3-0.7,1.4-1.4c0-0.6-0.4-1.2-1-1.4
	c-0.4-0.2-0.9-0.1-1.4,0.1c-0.5,0.3-0.9,0.7-1.4,1c-0.2,0.1-0.4,0.3-0.6,0.4l0,0l0,0c-0.2,0.1-0.5,0.1-0.8,0C6.1,26.4,6,26.2,6,25.9
	c0-0.3,0.1-0.5,0.3-0.6c0.2-0.1,0.5-0.1,0.8,0.1l0,0l0.4,0.5c0.4-0.3,0.9-0.7,1.4-1l0,0l0,0c0.5-0.3,1.1-0.3,1.6-0.1
	c0.7,0.3,1.2,0.9,1.2,1.6c0,0.8-0.7,1.5-1.6,1.6C10,28,10,28,9.9,28z M6.7,25.5c-0.1,0-0.1,0-0.2,0c-0.1,0.1-0.2,0.2-0.2,0.4
	c0,0.2,0.1,0.3,0.2,0.4c0.1,0.1,0.3,0.1,0.5,0c0.1-0.1,0.3-0.2,0.4-0.3L7,25.6C6.9,25.5,6.8,25.5,6.7,25.5z"/>
<g id="形状_6">
	<path d="M13.8,25.5C13.8,25.5,13.8,25.5,13.8,25.5L13.8,25.5L13.8,25.5C13.8,25.5,13.9,25.5,13.8,25.5
		C13.9,25.5,13.9,25.5,13.8,25.5L13.8,25.5c0.1,0.2,0,0.4-0.2,0.6l0,0c-0.1,0.2-0.4,0.4-0.8,0.5c0,0,0,0,0,0l0,0l0,0
		c0-0.1,0-0.4,0.3-0.7C13.4,25.7,13.7,25.5,13.8,25.5 M13.9,26.9l1.4,1.2l0.1,0.3c-0.1,0-0.2,0.1-0.4,0.1c-0.1,0-0.3,0-0.4-0.1
		c0,0,0,0,0,0c0,0,0-0.1,0-0.2c0,0,0-0.1,0-0.1l0-0.1l-0.1-0.1L13.9,26.9 M16,26.9C16,26.9,16.1,26.9,16,26.9
		c0.1,0.1,0.2,0.1,0.2,0.2l-0.3,0L15.8,27c0,0,0,0,0,0C15.9,27,16,26.9,16,26.9 M13.8,25.3c-0.3,0-0.6,0.2-0.9,0.5
		c-0.3,0.3-0.5,0.7-0.4,0.9c0,0,0,0.1,0.1,0.1c0,0,0.1,0,0.1,0.1c0.5-0.1,0.9-0.4,1-0.6l0,0c0.2-0.3,0.4-0.6,0.3-0.8c0,0,0,0,0,0
		c0,0,0-0.1-0.1-0.1C14,25.3,13.9,25.3,13.8,25.3C13.9,25.3,13.8,25.3,13.8,25.3L13.8,25.3z M14.2,25.6c0,0.1-0.1,0.3-0.2,0.5
		l0.2,0.2l0,0c-0.1,0.1-0.1,0.2-0.2,0.3c0,0-0.2-0.1-0.2-0.1c-0.2,0.2-0.5,0.4-0.9,0.5c0.1,0,0.2,0,0.3,0c0.1,0,0.3,0,0.4-0.1
		l0.9,1.1c0,0.3-0.1,0.4,0.1,0.5c0.1,0.1,0.3,0.2,0.5,0.2c0.2,0,0.5-0.1,0.7-0.2c0.1-0.1,0.2-0.2,0.3-0.3c0.4,0.3,0.8,0.5,1,0.7
		c-0.2-0.2-0.6-0.4-1-0.7c0,0,0,0,0,0l1.1,0.8c0,0,0,0,0,0c0-0.1-0.5-0.5-1-0.9c0.1-0.2,0.2-0.3,0.3-0.6c0.1-0.3,0-0.6-0.3-0.8
		c-0.1,0-0.1-0.1-0.2-0.1c-0.1,0-0.3,0.1-0.5,0.1c-0.4-0.2-1.3-0.7-1.3-0.7C14.3,25.9,14.2,25.7,14.2,25.6L14.2,25.6z M15.5,27.9
		L14,26.6c0.1-0.1,0.2-0.2,0.2-0.3l1.6,1.1c0,0.1-0.1,0.3-0.2,0.4C15.6,27.8,15.6,27.8,15.5,27.9L15.5,27.9z M15.7,28.4L15.7,28.4
		l-0.2-0.4c0.1,0,0.1-0.1,0.2-0.2c0.1-0.1,0.2-0.2,0.2-0.4l0.5,0l0,0c-0.1,0.2-0.2,0.5-0.4,0.7C15.9,28.2,15.8,28.3,15.7,28.4
		L15.7,28.4z"/>
</g>
</svg>
