<?xml version="1.0" encoding="utf-8"?>
<!-- Generator: Adobe Illustrator 23.0.3, SVG Export Plug-In . SVG Version: 6.00 Build 0)  -->
<svg version="1.1" id="图层_1" xmlns="http://www.w3.org/2000/svg" xmlns:xlink="http://www.w3.org/1999/xlink" x="0px" y="0px"
	 viewBox="0 0 529.8 529.8" style="enable-background:new 0 0 529.8 529.8;" xml:space="preserve">
<style type="text/css">
	.st0{fill:#FFFFFF;}
	.st1{fill-rule:evenodd;clip-rule:evenodd;fill:#FFFFFF;}
	.st2{fill:#FFF100;}
	.st3{fill:none;stroke:#FFFFFF;stroke-width:20;stroke-linecap:round;}
</style>
<path id="圆角矩形_3" class="st0" d="M72,267h380c5.5,0,10,4.5,10,10l0,0c0,5.5-4.5,10-10,10H72c-5.5,0-10-4.5-10-10l0,0
	C62,271.5,66.5,267,72,267z"/>
<path id="圆角矩形_3-2" class="st0" d="M72.3,329.9L72.3,329.9c5.5,0,10,4.5,10,10v180c0,5.5-4.5,10-10,10l0,0
	c-5.5,0-10-4.5-10-10v-180C62.3,334.4,66.8,329.9,72.3,329.9z"/>
<path id="圆角矩形_3-3" class="st1" d="M230.5,433.7c1.9-5.2,7.6-7.9,12.8-6l0,0l216.1,78.7c5.2,1.9,7.9,7.6,6,12.8
	s-7.6,7.9-12.8,6l-216.1-78.7C231.3,444.6,228.6,438.9,230.5,433.7z"/>
<path id="圆角矩形_3-4" class="st1" d="M350.1,427.4c2.8,4.8,1.1,10.9-3.7,13.7l-69.3,40c-4.8,2.8-10.9,1.2-13.7-3.6
	s-1.2-10.9,3.6-13.7c0,0,0.1,0,0.1-0.1l69.3-40C341.2,421,347.3,422.6,350.1,427.4z"/>
<path id="圆角矩形_3-5" class="st0" d="M146.4,372.9h256.1c5.2,0,9.4,4.2,9.4,9.4v1.1c0,5.2-4.2,9.4-9.4,9.4H146.4
	c-5.2,0-9.4-4.2-9.4-9.4v-1.1C136.9,377.2,141.1,372.9,146.4,372.9z"/>
<path id="圆角矩形_3-6" class="st0" d="M146.9,329.1h255c5.5,0,10,4.5,10,10l0,0c0,5.5-4.5,10-10,10h-255c-5.5,0-10-4.5-10-10
	l0,0C136.9,333.6,141.4,329.1,146.9,329.1z"/>
<g id="圆角矩形_4">
	<path class="st0" d="M82,215.1c-5.5,0-10-4.5-10-10v-185c0-5.5,4.5-10,10-10h310c5.5,0,10,4.5,10,10v185c0,5.5-4.5,10-10,10H82z"/>
	<path class="st0" d="M392,20.1v185H82v-185H392 M392,0.1H82c-11,0-20,9-20,20v185c0,11,9,20,20,20h310c11,0,20-9,20-20v-185
		C412,9.1,403,0.1,392,0.1L392,0.1z"/>
</g>
<g id="椭圆_1">
	<circle class="st2" cx="243.6" cy="112.3" r="60.5"/>
	<path d="M243.6,61.8c27.9,0,50.5,22.7,50.5,50.5s-22.7,50.5-50.5,50.5s-50.5-22.7-50.5-50.5S215.8,61.8,243.6,61.8 M243.6,41.8
		c-39,0-70.5,31.6-70.5,70.5s31.6,70.5,70.5,70.5c38.9,0,70.5-31.6,70.5-70.5S282.6,41.8,243.6,41.8L243.6,41.8z"/>
</g>
<path id="圆角矩形_5" class="st3" d="M311.5,519.5H165.1c-9.7,0-17.6-6.7-17.6-15v-60c0-8.3,7.9-15,17.6-15h30.4"/>
</svg>
