<?xml version="1.0" encoding="utf-8"?>
<!-- Generator: Adobe Illustrator 23.0.3, SVG Export Plug-In . SVG Version: 6.00 Build 0)  -->
<svg version="1.1" id="组_1" xmlns="http://www.w3.org/2000/svg" xmlns:xlink="http://www.w3.org/1999/xlink" x="0px" y="0px"
	 viewBox="0 0 1000 1000" style="enable-background:new 0 0 1000 1000;" xml:space="preserve">
<style type="text/css">
	.st0{fill-rule:evenodd;clip-rule:evenodd;fill:#FFFFFF;}
	.st1{fill-rule:evenodd;clip-rule:evenodd;}
	.st2{fill:#FFFFFF;}
	.st3{fill:#FFF100;}
	.st4{fill:none;stroke:#000000;stroke-width:20;stroke-linecap:round;}
</style>
<g id="矩形_1">
	<polygon class="st0" points="204.1,840.2 116.3,512.5 887.5,512.5 887.5,840.2 	"/>
	<path d="M875,525v302.7H213.7L132.6,525H875 M900,500H100l94.5,352.7H900V500L900,500z"/>
</g>
<g id="圆角矩形_2">
	<path class="st0" d="M207,840.2V159.8h593c48.2,0,87.5,39.3,87.5,87.5v593H207z"/>
	<path d="M800,172.3c41.4,0,75,33.6,75,75v580.5H219.5V172.3H800 M800,147.3H194.5v705.5H900V247.3C900,192,855.2,147.3,800,147.3
		L800,147.3z"/>
</g>
<path id="圆角矩形_3" d="M371.5,501.5h380c5.5,0,10,4.5,10,10l0,0c0,5.5-4.5,10-10,10h-380c-5.5,0-10-4.5-10-10l0,0
	C361.5,506,366,501.5,371.5,501.5z"/>
<path id="圆角矩形_3-2" d="M371.8,564.4L371.8,564.4c5.5,0,10,4.5,10,10v180c0,5.5-4.5,10-10,10l0,0c-5.5,0-10-4.5-10-10v-180
	C361.8,568.9,366.3,564.4,371.8,564.4z"/>
<path id="圆角矩形_3-3" class="st1" d="M530,668.2c1.9-5.2,7.6-7.9,12.8-6l0,0l216.1,78.7c5.2,1.9,7.9,7.6,6,12.8
	s-7.6,7.9-12.8,6L536,681C530.8,679.1,528.1,673.4,530,668.2z"/>
<path id="圆角矩形_3-4" class="st1" d="M649.6,661.9c2.8,4.8,1.1,10.9-3.7,13.7l-69.3,40c-4.8,2.8-10.9,1.2-13.7-3.6
	c-2.8-4.8-1.2-10.9,3.6-13.7c0,0,0.1,0,0.1-0.1l69.3-40C640.7,655.5,646.8,657.1,649.6,661.9z"/>
<path id="圆角矩形_3-5" d="M445.9,607.4H702c5.2,0,9.4,4.2,9.4,9.4v1.1c0,5.2-4.2,9.4-9.4,9.4H445.9c-5.2,0-9.4-4.2-9.4-9.4
	v-1.1C436.4,611.7,440.6,607.4,445.9,607.4z"/>
<path id="圆角矩形_3-6" d="M446.4,563.6h255c5.5,0,10,4.5,10,10l0,0c0,5.5-4.5,10-10,10h-255c-5.5,0-10-4.5-10-10l0,0
	C436.4,568.1,440.9,563.6,446.4,563.6z"/>
<g id="圆角矩形_4">
	<path class="st2" d="M381.5,449.6c-5.5,0-10-4.5-10-10v-185c0-5.5,4.5-10,10-10h310c5.5,0,10,4.5,10,10v185c0,5.5-4.5,10-10,10
		H381.5z"/>
	<path d="M691.5,254.6v185h-310v-185H691.5 M691.5,234.6h-310c-11,0-20,9-20,20v185c0,11,9,20,20,20h310c11,0,20-9,20-20v-185
		C711.5,243.6,702.5,234.6,691.5,234.6L691.5,234.6z"/>
</g>
<g id="椭圆_1">
	<circle class="st3" cx="543.1" cy="346.8" r="60.5"/>
	<path d="M543.1,296.3c27.9,0,50.5,22.7,50.5,50.5s-22.7,50.5-50.5,50.5s-50.5-22.7-50.5-50.5S515.3,296.3,543.1,296.3 M543.1,276.3
		c-39,0-70.5,31.6-70.5,70.5s31.6,70.5,70.5,70.5s70.5-31.6,70.5-70.5S582.1,276.3,543.1,276.3L543.1,276.3z"/>
</g>
<path id="圆角矩形_5" class="st4" d="M611,754H464.6c-9.7,0-17.6-6.7-17.6-15v-60c0-8.3,7.9-15,17.6-15l30.4,0"/>
</svg>
