<?xml version="1.0" encoding="utf-8"?>
<!-- Generator: Adobe Illustrator 23.0.3, SVG Export Plug-In . SVG Version: 6.00 Build 0)  -->
<svg version="1.1" id="图层_1" xmlns="http://www.w3.org/2000/svg" xmlns:xlink="http://www.w3.org/1999/xlink" x="0px" y="0px"
	 viewBox="0 0 1000 1000" style="enable-background:new 0 0 1000 1000;" xml:space="preserve">
<style type="text/css">
	.st0{fill:#FFFFFF;}
	.st1{fill:#FFF100;}
	.st2{fill:none;stroke:#000000;stroke-width:25;}
</style>
<g id="圆角矩形_2">
	<path class="st0" d="M12.5,987.5v-975H800c103.4,0,187.5,84.1,187.5,187.5v600c0,103.4-84.1,187.5-187.5,187.5H12.5z"/>
	<path d="M800,25c46.7,0,90.7,18.2,123.7,51.3c33.1,33.1,51.3,77,51.3,123.7v600c0,46.7-18.2,90.7-51.3,123.7
		c-33.1,33.1-77,51.3-123.7,51.3H25V25H800 M800,0H0v1000h800c110.5,0,200-89.5,200-200V200C1000,89.5,910.5,0,800,0L800,0z"/>
</g>
<path id="圆角矩形_3" d="M222.5,504.3h570c8.3,0,15,6.7,15,15l0,0c0,8.3-6.7,15-15,15h-570c-8.3,0-15-6.7-15-15l0,0
	C207.5,511.1,214.2,504.3,222.5,504.3z"/>
<path id="圆角矩形_3-2" d="M223,585L223,585c8.3,0,15,6.7,15,15v270c0,8.3-6.7,15-15,15l0,0c-8.3,0-15-6.7-15-15V600
	C208,591.7,214.7,585,223,585z"/>
<path id="圆角矩形_3-3" d="M323,585h370c8.3,0,15,6.7,15,15l0,0c0,8.3-6.7,15-15,15H323c-8.3,0-15-6.7-15-15l0,0
	C308,591.7,314.7,585,323,585z"/>
<path id="圆角矩形_3-4" d="M323,659h370c8.3,0,15,6.7,15,15l0,0c0,8.3-6.7,15-15,15H323c-8.3,0-15-6.7-15-15l0,0
	C308,665.7,314.7,659,323,659z"/>
<g id="圆角矩形_4">
	<path class="st0" d="M227.5,448.2c-4.1,0-7.5-3.4-7.5-7.5v-306c0-4.1,3.4-7.5,7.5-7.5h460c4.1,0,7.5,3.4,7.5,7.5v306
		c0,4.1-3.4,7.5-7.5,7.5H227.5z"/>
	<path d="M682.5,139.7v296h-450v-296H682.5 M687.5,114.7h-460c-11,0-20,9-20,20v306c0,11,9,20,20,20h460c11,0,20-9,20-20v-306
		C707.5,123.6,698.5,114.7,687.5,114.7L687.5,114.7z"/>
</g>
<g id="椭圆_1">
	<circle class="st1" cx="465" cy="282.2" r="87.5"/>
	<path d="M465,207.2c41.4,0,75,33.6,75,75s-33.6,75-75,75s-75-33.6-75-75S423.6,207.2,465,207.2 M465,182.2
		c-55.2,0-100,44.8-100,100c0,55.2,44.8,100,100,100s100-44.8,100-100C565,226.9,520.2,182.2,465,182.2L465,182.2z"/>
</g>
<path id="形状_1" class="st2" d="M367,743c-28.3,16.6-42,41.2-39,62c2.1,14.5,18.7,34.6,60,49c43.4,15.2,108.3,14.4,150-28
	c17.2-17.5,41.4-53.2,29-75c-14.9-26-79.6-27.5-103,4c-9.4,12.6-15.9,35.3-6,46c23.6,25.4,116.4-51.1,200-27
	c41.1,11.9,75.1,42.2,103,86"/>
</svg>
