<?xml version="1.0" encoding="utf-8"?>
<!-- Generator: Adobe Illustrator 23.0.3, SVG Export Plug-In . SVG Version: 6.00 Build 0)  -->
<svg version="1.1" id="图层_1" xmlns="http://www.w3.org/2000/svg" xmlns:xlink="http://www.w3.org/1999/xlink" x="0px" y="0px"
	 viewBox="0 0 2000 2000" style="enable-background:new 0 0 2000 2000;" xml:space="preserve">
<style type="text/css">
	.st0{fill:#FFFFFF;}
</style>
<g>
	<g>
		<path class="st0" d="M1186.5,1244l-429.5,45.9l-26.9,60.9l11.4-59.2l-79.5,8.5l82.8-25.2l72.9-378.5l-28,26.1
			c-109.2,101.7-204,205-295.8,304.8C369.2,1362.9,241,1502.4,74.5,1640.6L870.9,616.7c14.2-12.5,30.8-19.2,49.5-20.1l0.4,0l0.4,0
			c3.4-0.4,6.9-0.6,10.3-0.6c19.7,0,38.7,6.2,53.6,17.6l0.6,0.5l0.7,0.4c1.1,0.6,1.9,1.1,2.3,1.4c1.1,0.9,5.5,4.7,10.5,11.4l0.2,0.3
			c15.9,19.7,22.7,46,18.6,72.2l-0.1,0.6c-2.6,16.3-9.5,31.8-19.8,44.7l-1,1.3l-230.6,521.9l678.6-206.8c3.9-0.4,7.8-0.5,11.6-0.5
			c2.7,0,5.4,0.1,8.1,0.3l0.3,0c13,0.6,25.7,3.9,36.9,9.6l0.2,0.1c16.5,8,25.3,18.1,26.8,19.9c0.6,1,2.4,3.9,4.6,8.1l0.3,0.5
			l0.3,0.5c11,17,15.9,38,14,58.9l0,0.3l0,0.3c-0.7,14.8-5.2,28.3-13.3,40.3l-0.2,0.2l-0.2,0.2c-2.5,4-5.2,7.9-8.3,11.6
			c-207.5,158.8-449.4,275-683.3,387.4c-130.3,62.6-263.2,126.4-391.3,198.2L1186.5,1244z"/>
		<path d="M931.5,608.5c16.9,0,33.3,5.3,46,15l1.2,0.9l1.3,0.8c0.5,0.3,0.9,0.5,1.2,0.7c1.3,1.1,4.4,4.1,8,8.8l0.2,0.3l0.3,0.3
			c13.7,17,19.5,39.7,16,62.5l-0.1,0.7l0,0c-2.3,14.1-8.2,27.5-17.2,38.8l-2,2.5l-1.3,2.9l-218.9,495.4l-3,6.7l59.4-308.6l14.5-75.3
			L781,913.3c-109.5,102.1-204.6,205.5-296.5,305.5c-72.1,78.5-146.6,159.6-227.5,239.2c-31.5,31-62.8,60.6-94.1,89.1l716.7-921.4
			l0.3-0.4c11.9-10.2,25.4-15.5,40.9-16.2l0.8,0l0.8-0.1C925.5,608.6,928.5,608.5,931.5,608.5L931.5,608.5L931.5,608.5
			 M1456.8,1073.4c2.4,0,4.9,0.1,7.2,0.2l0.3,0l0.3,0c11.2,0.5,22.2,3.3,31.8,8.2l0.2,0.1l0.2,0.1c12.7,6.2,20.1,13.8,22.1,16.1
			c0.7,1.2,2,3.4,3.6,6.4l0.6,1.1l0.7,1c9.5,14.7,13.8,32.8,12.1,51l0,0.5l0,0.5c-0.6,12.6-4.3,23.7-11.2,33.9l-0.3,0.5l-0.3,0.5
			c-1.9,3.1-4,6.2-6.3,9c-92.1,70.4-198.9,138.4-326.5,207.9c-115.1,62.7-236.3,120.9-353.5,177.2c-82.9,39.8-166.9,80.2-250,122.7
			l570.2-429.4l72.3-54.4l-90,9.6l-348.6,37.3l4.8-1.5l651.2-198.4C1450.7,1073.5,1453.8,1073.4,1456.8,1073.4 M931.5,583.5
			c-3.9,0-7.8,0.2-11.7,0.6c-19.7,0.9-40.6,7.6-59.7,25.5l-0.2,0.8L0,1716c341.1-261.4,517.4-522.9,798.1-784.4l-64.3,333.5
			l-201.5,61.4l193.7-20.7l-29.1,150.9l68.5-155.1l377.4-40.3L187.1,1981c413.8-306.6,938.8-446.5,1348-760.1
			c3.9-4.5,7.3-9.3,10.3-14.2c10.3-15.3,14.6-31.4,15.4-46.7c2.2-23.6-3.4-47.4-16-66.9c-3.2-6.2-5.5-9.7-5.5-9.7
			s-10.3-13.6-31.5-23.9c-13-6.6-27.3-10.3-42-10.9c-2.9-0.2-5.9-0.3-9-0.3c-4.5,0-9.2,0.2-14.1,0.7L789,1248.3l218.9-495.4
			c12.1-15.3,19.5-32.7,22.3-50.5l0.1-0.1c0-0.2,0-0.4,0.1-0.6c4.5-29.3-3.1-59.4-21.2-82c-7.1-9.4-13.2-14-13.2-14s-1.2-0.8-3.3-2
			C975.1,590.3,953.5,583.5,931.5,583.5L931.5,583.5z"/>
	</g>
	<g>
		<path class="st0" d="M187.1,1981c-8.5,6.3-16.9,12.6-25.2,19L187.1,1981z"/>
		<path d="M187.1,1981c-8.5,6.3-16.9,12.6-25.2,19L187.1,1981L187.1,1981z"/>
	</g>
</g>
<g>
	<path class="st0" d="M1241.1,864.5c-9.3,0-16.6-2.2-21.8-6.5c-11.1-9.3-12-28.6-10.9-43.2c1.8-23.3,10.1-53.1,24.5-88.4
		c29.4-72,83.5-163.4,152.3-257.3l6.5-8.9l-8-7.6c-87.2-82.4-159.3-165.2-202.9-233.2c-21.4-33.3-35.4-62-41.7-85.4
		c-3.9-14.7-6.7-34.5,2.9-45.9c6.3-7.5,17.7-11.3,33.9-11.3c34.5,0,86.4,16.9,150.2,49c65.1,32.7,139.8,79.9,215.9,136.5l8.9,6.6
		l7.6-8.1c70.5-74.7,140.5-137.6,202.5-182c59.7-42.8,109.5-66.4,140.4-66.4c9.3,0,16.6,2.2,21.8,6.5c11.4,9.6,12.2,29.6,10.8,44.8
		c-2.2,24.2-11,55-26.3,91.6c-31.3,74.7-88,169-159.8,265.4l-6.6,8.9l8,7.6c84.3,80.7,153.6,161.5,195.2,227.4
		c20.4,32.3,33.8,60.3,39.6,83c3.7,14.2,6.1,33.5-3.2,44.6c-6.3,7.5-17.7,11.3-34,11.3c0,0,0,0,0,0c-33.7,0-84.3-16.3-146.3-47
		c-63.2-31.4-135.9-76.8-210.2-131.3l-8.8-6.5l-7.6,7.9c-68.8,71.8-136.8,132.2-196.7,174.6C1319.6,842,1271.2,864.5,1241.1,864.5z"
		/>
	<path d="M1901.5,25c6.3,0,10.9,1.2,13.7,3.6c8.8,7.4,14.7,41.4-19,122c-30.9,73.8-87.1,167.1-158.3,262.8l-13.2,17.7l15.9,15.3
		c83.6,80,152.2,159.9,193.3,225c19.5,30.8,32.6,58.3,38.1,79.4c4.1,15.8,3.9,28-0.7,33.4c-3.7,4.4-12.4,6.8-24.4,6.8
		c-31.4,0-81.3-16.2-140.7-45.7c-62.6-31.1-134.6-76.1-208.4-130.2l-17.7-13l-15.2,15.8c-68.2,71.2-135.6,131.1-194.9,173
		c-28.6,20.3-54.7,35.9-77.4,46.3c-26.5,12.2-42.7,14.8-51.7,14.8c-6.3,0-10.9-1.2-13.7-3.6c-5.4-4.5-7.7-16.4-6.5-32.7
		c1.7-21.7,9.9-51,23.6-84.6c29.1-71.1,82.6-161.5,150.8-254.7l13-17.8l-16-15.1c-86.5-81.7-157.9-163.7-201-230.9
		c-47-73.3-47.1-107.7-39.8-116.5c3.7-4.4,12.3-6.8,24.4-6.8c32.1,0,83.4,16.9,144.6,47.7c64.5,32.4,138.5,79.2,214.1,135.3
		l17.8,13.2l15.3-16.2c70-74.1,139.3-136.5,200.7-180.5c29.6-21.2,56.4-37.5,79.9-48.5C1875.6,27.7,1892.3,25,1901.5,25 M1901.5,0
		c-69.2,0-207.3,99.1-351.9,252.3C1392.9,135.9,1250,64.4,1175.9,64.4c-19.7,0-34.6,5.1-43.5,15.7
		c-42.6,50.8,62.7,211.5,242.8,381.6c-141.8,193.8-213.6,364.2-163.9,405.9c7.6,6.4,17.6,9.4,29.8,9.4c67.7,0,201-94.7,342-241.9
		C1735.9,747.3,1874.4,816,1947,816c19.8,0,34.6-5.1,43.6-15.8c41.8-49.8-58.8-205.5-232.6-372c148.2-199.1,224.2-376.1,173.3-418.8
		C1923.7,3,1913.7,0,1901.5,0L1901.5,0z"/>
</g>
</svg>
