<?xml version="1.0" encoding="utf-8"?>
<!-- Generator: Adobe Illustrator 23.0.3, SVG Export Plug-In . SVG Version: 6.00 Build 0)  -->
<svg version="1.1" id="图层_1" xmlns="http://www.w3.org/2000/svg" xmlns:xlink="http://www.w3.org/1999/xlink" x="0px" y="0px"
	 viewBox="0 0 2000 2000" style="enable-background:new 0 0 2000 2000;" xml:space="preserve">
<g>
	<path d="M1775.3,100c0.8,0,1.5,0,2.1,0c0.7,3,1.3,7.4,1.6,13.5c0.8,15.2-1,35-5.2,57.2c-9.8,52.2-32,116.8-65.9,192
		c-35.2,78.2-81.9,165-138.6,257.7c-58.4,95.6-126.3,195.3-201.6,296.5l-52.7,70.8l63.8,61.1c88.2,84.5,168.9,168.6,239.9,250
		c69,79.1,127.2,154,173.3,222.6c44.2,65.9,75.6,123.6,93.3,171.5c7.5,20.3,12.4,38.7,14.1,53.3c0.7,5.6,0.7,9.7,0.6,12.7
		c-4.2,0.9-10.8,1.8-20.8,1.8c-21,0-58.8-4.1-120-23.7c-53.3-17.1-114.5-42.7-181.8-76.1c-140.5-69.8-302.6-171.1-468.9-293.1
		l-70.7-51.9l-60.7,63.3c-153.8,160.5-305.3,295.1-438.3,389.2c-63.2,44.7-120.2,79-169.6,101.7c-56.1,25.9-86.7,29.8-99.8,29.8
		c-0.7,0-1.4,0-2.1,0c-0.6-2.9-1.2-7-1.6-12.5c-0.9-14.6,0.7-33.5,4.6-54.8c9.1-50.1,29.9-112.3,61.9-184.7
		c33.3-75.4,77.5-159.1,131.5-248.7c55.5-92.3,120.2-188.9,192.1-287.2l52.1-71.2l-64.1-60.6c-91.5-86.4-175.4-172.7-249.3-256.5
		c-71.8-81.3-132.6-158.4-180.7-229.2c-46.3-68-79.3-127.7-97.9-177.2c-8-21.1-13.1-40.2-15-55.3c-0.7-5.9-0.8-10.3-0.7-13.4
		c4.2-0.9,10.8-1.8,20.7-1.8c21.5,0,60.3,4.3,123.3,24.8c54.9,17.8,117.9,44.5,187.2,79.3c144.9,72.8,311.5,178.1,481.9,304.7
		l71.3,53l61-64.6c157.7-167,313.7-307.4,451.4-406.1c65.3-46.8,124.3-82.7,175.3-106.6C1730.3,104,1761.8,100,1775.3,100 M1775.3,0
		c-157.9,0-472.6,226-802.6,575.4C615.5,310,289.7,146.8,120.8,146.8c-45,0-78.9,11.6-99.3,35.9c-97.1,115.8,143,482.4,553.6,870.2
		c-323.5,441.9-487.1,830.5-373.7,925.6c17.3,14.5,40.2,21.5,67.9,21.5c154.3,0,458.3-215.9,779.9-551.6
		c348.6,255.8,664.4,412.3,829.9,412.3c45.1,0,78.9-11.6,99.4-35.9c95.3-113.6-134.1-468.6-530.5-848.2
		c337.9-453.9,511.3-857.7,395.3-955.1C1826,7,1803.1,0,1775.3,0L1775.3,0z"/>
</g>
</svg>
