<?xml version="1.0" encoding="utf-8"?>
<!-- Generator: Adobe Illustrator 23.0.3, SVG Export Plug-In . SVG Version: 6.00 Build 0)  -->
<svg version="1.1" id="图层_1" xmlns="http://www.w3.org/2000/svg" xmlns:xlink="http://www.w3.org/1999/xlink" x="0px" y="0px"
	 viewBox="0 0 2000 2000" style="enable-background:new 0 0 2000 2000;" xml:space="preserve">
<style type="text/css">
	.st0{fill-rule:evenodd;clip-rule:evenodd;fill:#00B0FF;}
	.st1{fill-rule:evenodd;clip-rule:evenodd;fill:#FFDE00;}
</style>
<path id="形状_3" class="st0" d="M0,1716L860.1,610.2c40.2-34.8,98.5-35.1,135.8-4c42.4,35.3,48.9,103.5,9.6,149.6
	C588.1,1075.9,417.5,1396,0,1716z"/>
<path id="形状_3-2" class="st0" d="M1030.3,702.2c6.6-65.6-34.4-96.6-34.4-96.6s-77-51.2-135.8,4l-163.2,847.1L1030.3,702.2z"/>
<path id="形状_3-3" class="st0" d="M1442.7,1049.1c65.6-6.6,96.6,34.4,96.6,34.4s51.2,77-4,135.8l-1003,107.2L1442.7,1049.1z"/>
<path id="形状_3-4" class="st0" d="M161.9,2000l1227.8-924.7c40.2-34.8,98.5-35.1,135.8-4c42.4,35.3,48.9,103.5,9.6,149.6
	C1117.6,1540.9,579.4,1680,161.9,2000z"/>
<path class="st1" d="M1678.7,528.4c-198.8,236.9-408.1,388.9-467.4,339.2s54-282.2,252.8-519.2s408-388.7,467.2-339
	C1990.6,59.2,1877.5,291.5,1678.7,528.4z"/>
<path class="st1" d="M1990.6,800.2c-49.7,59.3-282.1-53.9-519.1-252.8s-388.8-408-339.1-467.3c49.7-59.2,282.1,53.9,519.1,252.8
	S2040.3,740.9,1990.6,800.2L1990.6,800.2z"/>
</svg>
