<?xml version="1.0" encoding="utf-8"?>
<!-- Generator: Adobe Illustrator 23.0.3, SVG Export Plug-In . SVG Version: 6.00 Build 0)  -->
<svg version="1.1" id="图层_1" xmlns="http://www.w3.org/2000/svg" xmlns:xlink="http://www.w3.org/1999/xlink" x="0px" y="0px"
	 viewBox="0 0 32 32" style="enable-background:new 0 0 32 32;" xml:space="preserve">
<path d="M16,0c-2.9,0-5.2,2.4-5.3,5.3c-4.8,2.1-8,7.1-8,12.7c0,0.2,0,0.5,0,0.8c-1.6,1-2.7,2.7-2.7,4.8c0,3.1,2.4,5.6,5.3,5.6
	c0.8,0,1.5-0.2,2.2-0.5c2.3,2,5.3,3.3,8.5,3.3s6.2-1.2,8.5-3.3c0.7,0.3,1.4,0.5,2.2,0.5c2.9,0,5.3-2.5,5.3-5.6
	c0-2.1-1.1-3.9-2.7-4.8c0-0.2,0-0.4,0-0.7c0-5.6-3.2-10.6-8-12.7C21.2,2.4,18.9,0,16,0z M16,2.8c1.5,0,2.7,1.2,2.7,2.8
	S17.5,8.3,16,8.3c-1.5,0-2.7-1.2-2.7-2.8S14.5,2.8,16,2.8z M11.3,8.1c0.9,1.8,2.7,3,4.7,3s3.8-1.2,4.7-3c3.6,1.8,6,5.6,6,10
	c-2.9,0-5.3,2.5-5.3,5.6c0,1.2,0.4,2.4,1.1,3.3c-1.8,1.4-4.1,2.3-6.4,2.3s-4.6-0.9-6.4-2.3c0.7-0.9,1.1-2.1,1.1-3.3
	c0-3.1-2.4-5.6-5.3-5.6C5.3,13.7,7.7,9.9,11.3,8.1z M5.3,20.9c1.5,0,2.7,1.2,2.7,2.8s-1.2,2.8-2.7,2.8s-2.7-1.2-2.7-2.8
	S3.8,20.9,5.3,20.9z M26.7,20.9c1.5,0,2.7,1.2,2.7,2.8s-1.2,2.8-2.7,2.8c-1.5,0-2.7-1.2-2.7-2.8S25.2,20.9,26.7,20.9z"/>
</svg>
