<?xml version="1.0" encoding="utf-8"?>
<!-- Generator: Adobe Illustrator 23.0.1, SVG Export Plug-In . SVG Version: 6.00 Build 0)  -->
<svg version="1.1" id="图层_1" xmlns="http://www.w3.org/2000/svg" xmlns:xlink="http://www.w3.org/1999/xlink" x="0px" y="0px"
	 viewBox="0 0 42.3 50" style="enable-background:new 0 0 42.3 50;" xml:space="preserve">
<style type="text/css">
	.st0{fill:#78C257;}
</style>
<path id="Android" class="st0" d="M3,16.2c-1.7,0-3,1.4-3,3v12.9c0,1.7,1.4,3.1,3.1,3.1s3.1-1.4,3-3.1V19.2
	C6.2,17.6,4.8,16.2,3,16.2 M28,4.5l2.2-3.9c0.1-0.2,0.1-0.5-0.2-0.5s-0.5,0-0.5,0.2l-2.2,4c-1.8-0.8-3.9-1.2-6-1.2
	c-2.2,0-4.2,0.5-6,1.2l-2.2-4C13,0,12.7-0.1,12.5,0.1c-0.2,0.1-0.3,0.4-0.2,0.5l2.2,3.9c-4.5,2.2-7.3,6.4-7.3,11.2h27.8
	C35.1,10.9,32.2,6.7,28,4.5 M14.8,10.6c-0.6,0-1.2-0.5-1.2-1.2c0-0.6,0.5-1.2,1.2-1.2S16,8.8,16,9.5C16,10.2,15.5,10.6,14.8,10.6
	 M27.5,10.6c-0.6,0-1.2-0.5-1.2-1.2c0-0.6,0.5-1.2,1.2-1.2s1.2,0.5,1.2,1.2C28.7,10.2,28.1,10.6,27.5,10.6 M7.3,16.7v20
	c0,1.8,1.5,3.3,3.3,3.3h2.3v6.9c0,1.7,1.4,3.1,3,3.1c1.7,0,3.1-1.4,3.1-3.1V40h4.1v6.9c0,1.7,1.4,3.1,3,3c1.7,0,3.1-1.4,3.1-3.1V40
	h2.3c1.8,0,3.3-1.5,3.3-3.3v-20H7.3z M42.3,19.2c0-1.7-1.4-3-3-3c-1.7,0-3,1.4-3,3.1v12.9c0,1.7,1.4,3,3,3c1.7,0,3-1.4,3-3.1V19.2z"
	/>
</svg>
