<?xml version="1.0" encoding="utf-8"?>
<!-- Generator: Adobe Illustrator 23.0.3, SVG Export Plug-In . SVG Version: 6.00 Build 0)  -->
<svg version="1.1"
	 id="svg52395" xmlns:cc="http://creativecommons.org/ns#" xmlns:dc="http://purl.org/dc/elements/1.1/" xmlns:rdf="http://www.w3.org/1999/02/22-rdf-syntax-ns#" xmlns:svg="http://www.w3.org/2000/svg"
	 xmlns="http://www.w3.org/2000/svg" xmlns:xlink="http://www.w3.org/1999/xlink" x="0px" y="0px" viewBox="0 0 1000 222.6"
	 style="enable-background:new 0 0 1000 222.6;" xml:space="preserve">
<style type="text/css">
	.st0{fill:#FFFFFF;}
</style>
<g id="layer1" transform="translate(-282.22393,-311.26514)">
	<g id="g34479" transform="matrix(21.016504,0,0,-21.016504,367.57882,493.02273)">
		<path id="path34481" class="st0" d="M0,0c-1.1,0-2,0.9-2,2.1c0,1.1,0.9,2.1,2,2.1c0.7,0,1.5-0.3,1.8-1c0,0,0.1-0.1,0.1-0.2V1.2
			c0,0,0-0.1,0-0.1C1.5,0.4,0.8,0,0,0 M3.7-1.6v7.4H1.9V5.2C1.3,5.6,0.7,5.9-0.2,5.9c-2.1,0-3.7-1.7-3.7-3.8c0-2.1,1.6-3.8,3.7-3.8
			c0.9,0,1.5,0.3,2.1,0.8v-0.6C1.9-1.6,3.7-1.6,3.7-1.6z M11.6-1.6v4c0,2-1.5,3.5-3.5,3.5c-2,0-3.5-1.6-3.5-3.5v-4h1.8v4
			c0,1,0.7,1.7,1.7,1.7c1,0,1.7-0.7,1.7-1.7v-4C9.8-1.6,11.6-1.6,11.6-1.6z M16.2,0c-1.1,0-2,0.9-2,2.1c0,1.1,0.9,2.1,2,2.1
			c0.7,0,1.5-0.4,1.8-1c0,0,0.1-0.1,0.1-0.2V1.2c0,0,0-0.1,0-0.1C17.7,0.4,17,0,16.2,0 M19.9-1.6V8h-1.8V5.2
			c-0.5,0.5-1.2,0.8-2.1,0.8c-2.1,0-3.7-1.7-3.7-3.8c0-2.1,1.6-3.8,3.7-3.8c0.9,0,1.5,0.3,2.1,0.8v-0.6L19.9-1.6L19.9-1.6z
			 M22.7-1.6v3.9c0,1.2,0.6,1.8,1.8,1.8v1.8c-2.3,0-3.6-1.2-3.6-3.6v-3.9C20.9-1.6,22.7-1.6,22.7-1.6z M28.4,0.1c-1.1,0-2,0.9-2,2
			c0,1.1,0.9,2,2,2c1.1,0,2-0.9,2-2C30.5,1,29.6,0.1,28.4,0.1 M28.4-1.7c2.1,0,3.9,1.7,3.9,3.8c0,2.1-1.7,3.8-3.9,3.8
			c-2.1,0-3.8-1.7-3.8-3.8C24.6,0,26.3-1.7,28.4-1.7 M34,6.3c0.6,0,1.1,0.5,1.1,1.1c0,0.6-0.5,1.1-1.1,1.1C33.5,8.5,33,8,33,7.4
			C33,6.8,33.5,6.3,34,6.3 M35,5.8h-1.8v-7.4H35V5.8z M39.7,0c-1.1,0-2,0.9-2,2.1c0,1.1,0.9,2.1,2,2.1c0.7,0,1.5-0.4,1.8-1
			c0,0,0.1-0.1,0.1-0.2V1.2c0,0,0-0.1,0-0.1C41.1,0.4,40.4,0,39.7,0 M43.3-1.6V8h-1.8V5.2c-0.5,0.5-1.2,0.8-2.1,0.8
			c-2.1,0-3.7-1.7-3.7-3.8c0-2.1,1.6-3.9,3.7-3.9c0.9,0,1.5,0.3,2.1,0.8v-0.6L43.3-1.6L43.3-1.6z"/>
	</g>
</g>
</svg>
