<?xml version="1.0" encoding="utf-8"?>
<!-- Generator: Adobe Illustrator 23.0.3, SVG Export Plug-In . SVG Version: 6.00 Build 0)  -->
<svg version="1.1" id="图层_1" xmlns="http://www.w3.org/2000/svg" xmlns:xlink="http://www.w3.org/1999/xlink" x="0px" y="0px"
	 viewBox="0 0 119 59" style="enable-background:new 0 0 119 59;" xml:space="preserve">
<style type="text/css">
	.st0{fill:#FFFFFF;}
</style>
<path class="st0" d="M0.8,57.8h9.7V16.5H0.8C0.8,16.4,0.8,57.8,0.8,57.8z M5.7,11c3,0,5.4-2.4,5.4-5.2c0-3-2.4-5.3-5.4-5.3
	S0.3,2.9,0.3,5.8C0.3,8.7,2.6,11,5.7,11z M42.9,0.6c-16.4,0-26.7,11.2-26.7,29.1s10.3,29,26.7,29s26.6-11.2,26.6-29
	S59.2,0.6,42.9,0.6z M42.9,9.1c10,0,16.4,8,16.4,20.5s-6.4,20.5-16.4,20.5c-10.1,0-16.4-8-16.4-20.5C26.4,17.2,32.8,9.1,42.9,9.1z
	 M73.6,41.9c0.4,10.4,8.9,16.8,21.9,16.8c13.6,0,22.2-6.7,22.2-17.4c0-8.4-4.8-13.1-16.2-15.7L95,24.1c-6.9-1.6-9.8-3.9-9.8-7.5
	c0-4.7,4.3-7.8,10.7-7.8s10.8,3.2,11.3,8.4h9.6C116.6,7.3,108.4,0.6,96,0.6c-12.2,0-20.9,6.7-20.9,16.7c0,8,4.9,13,15.3,15.4
	l7.3,1.7c7.1,1.6,10,4,10,8c0,4.7-4.8,8-11.5,8c-6.9,0-12.1-3.4-12.7-8.6L73.6,41.9L73.6,41.9z"/>
</svg>
