<?xml version="1.0" encoding="utf-8"?>
<!-- Generator: Adobe Illustrator 23.0.3, SVG Export Plug-In . SVG Version: 6.00 Build 0)  -->
<svg version="1.1"
	 id="图层_1" xmlns:cc="http://creativecommons.org/ns#" xmlns:dc="http://purl.org/dc/elements/1.1/" xmlns:rdf="http://www.w3.org/1999/02/22-rdf-syntax-ns#"
	 xmlns="http://www.w3.org/2000/svg" xmlns:xlink="http://www.w3.org/1999/xlink" x="0px" y="0px" viewBox="0 0 192 192"
	 style="enable-background:new 0 0 192 192;" xml:space="preserve">
<style type="text/css">
	.st0{fill:#FFFFFF;}
	.st1{fill:url(#SVGID_1_);}
</style>
<g transform="translate(213.78 -58.27)">
	<path class="st0" d="M-169.9,58.3h104.1c24.3,0,43.9,19.7,43.9,43.9v104.1c0,24.3-19.7,43.9-43.9,43.9h-104.1
		c-24.3,0-43.9-19.7-43.9-43.9V102.2C-213.8,77.9-194.1,58.3-169.9,58.3z"/>
	
		<linearGradient id="SVGID_1_" gradientUnits="userSpaceOnUse" x1="-382.8913" y1="45.8703" x2="-290.553" y2="148.063" gradientTransform="matrix(1 0 0 -1 213.78 252.27)">
		<stop  offset="0" style="stop-color:#771062"/>
		<stop  offset="0.1675" style="stop-color:#DD4972"/>
		<stop  offset="0.3107" style="stop-color:#FC7030"/>
		<stop  offset="0.449" style="stop-color:#FC6933"/>
		<stop  offset="0.58" style="stop-color:#F93C3F"/>
		<stop  offset="0.6872" style="stop-color:#DC1714"/>
		<stop  offset="0.7961" style="stop-color:#F4632F"/>
		<stop  offset="0.8966" style="stop-color:#FEAB13"/>
		<stop  offset="1" style="stop-color:#FEC220"/>
	</linearGradient>
	<path class="st1" d="M-188.7,188.7h11.8v-50.4h-11.8C-188.7,138.2-188.7,188.7-188.7,188.7z M-182.8,131.6c3.7,0,6.6-2.9,6.6-6.4
		c0-3.6-2.9-6.5-6.6-6.5c-3.7,0-6.6,2.9-6.6,6.5C-189.4,128.8-186.5,131.6-182.8,131.6z M-137.4,118.9c-20,0-32.6,13.7-32.6,35.5
		s12.6,35.4,32.6,35.4s32.5-13.6,32.5-35.4S-117.5,118.9-137.4,118.9z M-137.4,129.3c12.2,0,20,9.7,20,25s-7.8,25-20,25
		c-12.3,0-20-9.7-20-25C-157.5,139.1-149.7,129.3-137.4,129.3z M-99.9,169.3c0.5,12.7,10.9,20.5,26.7,20.5
		c16.6,0,27.1-8.2,27.1-21.2c0-10.2-5.9-16-19.8-19.2l-7.9-1.8c-8.4-2-11.9-4.7-11.9-9.2c0-5.7,5.2-9.5,13-9.5s13.2,3.9,13.8,10.3
		h11.7c-0.3-12.1-10.3-20.3-25.4-20.3c-14.9,0-25.5,8.2-25.5,20.4c0,9.8,6,15.9,18.6,18.8l8.9,2.1c8.7,2,12.2,4.9,12.2,9.8
		c0,5.7-5.8,9.8-14,9.8c-8.4,0-14.7-4.1-15.5-10.5L-99.9,169.3L-99.9,169.3z"/>
</g>
</svg>
