<?xml version="1.0" encoding="utf-8"?>
<!-- Generator: Adobe Illustrator 23.0.3, SVG Export Plug-In . SVG Version: 6.00 Build 0)  -->
<svg version="1.1" id="图层_1" xmlns="http://www.w3.org/2000/svg" xmlns:xlink="http://www.w3.org/1999/xlink" x="0px" y="0px"
	 viewBox="0 0 184.4 78.6" style="enable-background:new 0 0 184.4 78.6;" xml:space="preserve">
<style type="text/css">
	.st0{fill-rule:evenodd;clip-rule:evenodd;fill:#1793D1;}
</style>
<g id="layer1" transform="translate(-34.777313,-129.80241)">
	<g id="g2424" transform="matrix(0.8746356,0,0,0.8746356,14.730518,23.408954)">
		<g id="g5326" transform="matrix(0.9443373,0,0.01336345,0.9443373,78.345657,-412.48879)">
			<path id="path2292" class="st0" d="M-66.7,567.5l7.7-1.9l-0.9,91.2l-7.8,1.3L-66.7,567.5z"/>
			<path id="path2294" class="st0" d="M-46.3,594.8l6.8-3l-0.9,65.4l-6.5,1.3L-46.3,594.8z M-47.6,571.2l5.5-4.4l4.4,5l-5.5,4.5
				L-47.6,571.2z"/>
			<path id="path2296" class="st0" d="M-27,593.6l7.7-1.6l-0.2,13.7c0,0.6,4.4-15.3,24.7-14.9c19.7,0.1,22.7,15.3,22.5,18.8
				l-0.4,48.1l-6.7,1.5l0.6-47.5c0.1-1.4-2.9-13.1-16.8-13.2c-13.9,0-23.7,10.1-23.8,16.6l-0.5,41.8l-7.8,2L-27,593.6L-27,593.6z"/>
			<path id="path2298" class="st0" d="M94.1,657.9l-7.7,1.6l0.2-13.7c0-0.6-4.4,15.3-24.7,14.9c-19.7-0.1-22.7-15.3-22.5-18.8
				l0.4-48.1l8.2-1.6l-0.5,47.5c0,1.3,1.4,13.3,15.3,13.3c13.9,0,23.8-8.4,24-21l0.4-37.5l7.6-1.9L94.1,657.9L94.1,657.9z"/>
			<path id="path2300" class="st0" d="M110.1,593l-5.4,4.2l20.2,26.9l-22.4,31.1l5.6,4.2l21-28.9l20.9,29.6l5.3-4.2l-22.4-31.6
				l18.6-25.6L146,594l-16.9,23.7L110.1,593L110.1,593z"/>
		</g>
	</g>
</g>
</svg>
