<?xml version="1.0" encoding="utf-8"?>
<!-- Generator: Adobe Illustrator 23.0.3, SVG Export Plug-In . SVG Version: 6.00 Build 0)  -->
<svg version="1.1" id="图层_1" xmlns="http://www.w3.org/2000/svg" xmlns:xlink="http://www.w3.org/1999/xlink" x="0px" y="0px"
	 viewBox="0 0 250 59" style="enable-background:new 0 0 250 59;" xml:space="preserve">
<style type="text/css">
	.st0{fill:#FFFFFF;}
</style>
<path class="st0" d="M1,58h9.7V32.6c0-5,3.3-8.6,8-8.6c4.5,0,7.3,2.9,7.3,7.5V58h9.5V32.4c0-5,3.2-8.4,7.9-8.4c4.8,0,7.4,2.9,7.4,8
	v26h9.7V29.6c0-8.3-5.4-13.8-13.5-13.8c-6,0-10.9,3.2-12.9,8.3h-0.2c-1.5-5.3-5.7-8.3-11.6-8.3c-5.6,0-10,3.2-11.8,8h-0.2v-7.2H1
	L1,58L1,58z M81.8,51.3c-4.2,0-7-2.1-7-5.5c0-3.3,2.7-5.4,7.4-5.7l9.6-0.6v3.2C91.7,47.6,87.3,51.3,81.8,51.3L81.8,51.3z M78.9,58.7
	c5.3,0,10.5-2.8,12.9-7.3H92V58h9.4V29.5c0-8.3-6.7-13.8-17-13.8c-10.5,0-17.1,5.5-17.6,13.3h9c0.6-3.4,3.6-5.7,8.2-5.7
	c4.8,0,7.7,2.5,7.7,6.8v3l-10.9,0.6C70.7,34.4,65,38.8,65,46.2C65,53.6,70.9,58.7,78.9,58.7L78.9,58.7z M144,31.4
	c-0.7-8.7-7.4-15.6-18.4-15.6c-12,0-19.8,8.3-19.8,21.6c0,13.4,7.8,21.5,19.9,21.5c10.4,0,17.5-6.1,18.3-15.4h-9.2
	c-0.9,4.7-4.1,7.5-9,7.5c-6.2,0-10.2-5-10.2-13.7c0-8.5,3.9-13.7,10.1-13.7c5.2,0,8.3,3.3,9.1,7.7L144,31.4L144,31.4z M174.1,0.7
	c-16.4,0-26.8,11.2-26.8,29.1s10.3,29.1,26.8,29.1c16.4,0,26.7-11.2,26.7-29.1S190.5,0.7,174.1,0.7z M174.1,9.3
	c10,0,16.4,8,16.4,20.5c0,12.5-6.4,20.5-16.4,20.5c-10.1,0-16.4-8-16.4-20.5C157.6,17.3,164,9.3,174.1,9.3L174.1,9.3z M204.9,42.1
	c0.4,10.4,8.9,16.8,21.9,16.8c13.6,0,22.2-6.7,22.2-17.4c0-8.4-4.8-13.1-16.3-15.7l-6.5-1.5c-6.9-1.6-9.8-3.8-9.8-7.6
	c0-4.7,4.3-7.8,10.7-7.8c6.4,0,10.9,3.2,11.3,8.4h9.6c-0.2-9.9-8.4-16.6-20.9-16.6c-12.3,0-21,6.8-21,16.8c0,8,4.9,13,15.3,15.4
	l7.3,1.7c7.1,1.7,10,4,10,8.1c0,4.7-4.7,8-11.5,8c-6.9,0-12.1-3.4-12.7-8.6L204.9,42.1L204.9,42.1z"/>
</svg>
