<?xml version="1.0" encoding="utf-8"?>
<!-- Generator: Adobe Illustrator 23.0.3, SVG Export Plug-In . SVG Version: 6.00 Build 0)  -->
<svg version="1.1" id="图层_1" xmlns="http://www.w3.org/2000/svg" xmlns:xlink="http://www.w3.org/1999/xlink" x="0px" y="0px"
	 viewBox="0 0 342.1 66.7" style="enable-background:new 0 0 342.1 66.7;" xml:space="preserve">
<style type="text/css">
	.st0{fill:#FFFFFF;}
</style>
<g id="g4186" transform="translate(113.6877 -58.23806)">
	<path id="svg_2" class="st0" d="M-33.1,61.6l-17.5,62.1h-8.5L-72,78.4c-0.5-1.9-0.9-4-1-6.3h-0.2c-0.2,2.1-0.6,4.2-1.1,6.2
		l-12.9,45.5h-8.5l-18.2-62.1h8l13.2,47.7c0.5,2,0.9,4.1,1,6.2h0.2c0.1-1.5,0.6-3.6,1.3-6.2l13.7-47.7h7l13.2,48
		c0.5,1.6,0.8,3.6,1,5.8h0.2c0.1-1.5,0.5-3.5,1.2-6L-41,61.6L-33.1,61.6L-33.1,61.6L-33.1,61.6z"/>
	<path id="svg_3" class="st0" d="M-23.3,68.1c-1.3,0-2.4-0.4-3.3-1.3c-0.9-0.9-1.3-2-1.3-3.3c0-1.3,0.4-2.4,1.3-3.3
		c0.9-0.9,2-1.3,3.3-1.3c1.3,0,2.4,0.4,3.3,1.3c0.9,0.9,1.4,2,1.4,3.3c0,1.3-0.5,2.4-1.4,3.3C-20.9,67.7-22,68.1-23.3,68.1z
		 M-19.9,123.8H-27V79.4h7.1V123.8z"/>
	<path id="svg_4" class="st0" d="M27.9,123.8h-7.1V98.5c0-9.4-3.4-14.1-10.3-14.1c-3.6,0-6.5,1.3-8.8,4c-2.3,2.7-3.5,6-3.5,10.1
		v25.3h-7.1V79.4h7.1v7.4h0.2c3.3-5.6,8.2-8.4,14.6-8.4c4.9,0,8.6,1.6,11.1,4.7c2.6,3.1,3.9,7.7,3.9,13.6L27.9,123.8L27.9,123.8
		L27.9,123.8z"/>
	<path id="svg_5" class="st0" d="M78.4,123.8h-7.1v-7.5h-0.2c-3.3,5.7-8.4,8.6-15.3,8.6c-5.6,0-10-2-13.4-6c-3.3-4-5-9.4-5-16.2
		c0-7.3,1.8-13.2,5.5-17.6c3.7-4.4,8.6-6.6,14.8-6.6c6.1,0,10.5,2.4,13.3,7.2h0.2V58.1h7.1L78.4,123.8L78.4,123.8z M71.3,103.7v-6.5
		c0-3.6-1.2-6.6-3.6-9.1c-2.4-2.5-5.4-3.7-9-3.7c-4.3,0-7.7,1.6-10.2,4.8c-2.5,3.2-3.7,7.6-3.7,13.2c0,5.1,1.2,9.1,3.6,12.1
		c2.4,3,5.6,4.4,9.6,4.4c4,0,7.2-1.4,9.6-4.3C70.1,111.7,71.3,108.1,71.3,103.7L71.3,103.7z"/>
	<path id="svg_6" class="st0" d="M109.5,124.8c-6.6,0-11.8-2.1-15.7-6.2c-3.9-4.1-5.9-9.6-5.9-16.5c0-7.5,2-13.3,6.1-17.5
		c4.1-4.2,9.6-6.3,16.5-6.3c6.6,0,11.8,2,15.5,6.1c3.7,4.1,5.6,9.7,5.6,16.9c0,7.1-2,12.7-6,17S116.2,124.8,109.5,124.8L109.5,124.8
		z M110,84.3c-4.6,0-8.2,1.6-10.8,4.7c-2.7,3.1-4,7.4-4,12.8c0,5.3,1.3,9.4,4,12.4c2.7,3,6.3,4.5,10.8,4.5c4.6,0,8.1-1.5,10.6-4.5
		c2.5-3,3.7-7.2,3.7-12.7c0-5.5-1.2-9.8-3.7-12.8C118.1,85.8,114.6,84.3,110,84.3z"/>
	<path id="svg_7" class="st0" d="M195.6,79.4l-13.3,44.4H175L165.8,92c-0.3-1.2-0.6-2.6-0.7-4.1H165c-0.1,1-0.4,2.4-0.9,4l-9.9,31.8
		H147l-13.4-44.4h7.5l9.2,33.4c0.3,1,0.5,2.3,0.6,4h0.3c0.1-1.3,0.3-2.6,0.8-4.1l10.2-33.3h6.5l9.2,33.4c0.3,1.1,0.5,2.4,0.7,4h0.3
		c0.1-1.1,0.3-2.5,0.7-4l9-33.4L195.6,79.4L195.6,79.4z"/>
	<path id="svg_8" class="st0" d="M198.9,122.2v-7.6c3.9,2.9,8.1,4.3,12.8,4.3c6.2,0,9.4-2.1,9.4-6.2c0-1.2-0.3-2.2-0.8-3
		c-0.5-0.8-1.3-1.6-2.2-2.2c-0.9-0.6-2-1.2-3.2-1.7c-1.2-0.5-2.6-1-4-1.6c-2-0.8-3.7-1.6-5.2-2.4c-1.5-0.8-2.7-1.7-3.7-2.7
		c-1-1-1.7-2.1-2.3-3.4c-0.5-1.3-0.8-2.8-0.8-4.5c0-2.1,0.5-3.9,1.4-5.5c1-1.6,2.2-2.9,3.8-4c1.6-1.1,3.4-1.9,5.4-2.4
		c2-0.5,4.1-0.8,6.3-0.8c3.8,0,7.3,0.7,10.3,2v7.2c-3.3-2.1-7-3.2-11.3-3.2c-1.3,0-2.5,0.2-3.6,0.5c-1.1,0.3-2,0.7-2.8,1.3
		c-0.8,0.6-1.4,1.2-1.8,2c-0.4,0.8-0.6,1.6-0.6,2.5c0,1.2,0.2,2.1,0.6,2.9c0.4,0.8,1,1.5,1.8,2.1c0.8,0.6,1.8,1.2,2.9,1.6
		c1.2,0.5,2.5,1,3.9,1.6c2,0.8,3.7,1.5,5.3,2.3c1.6,0.8,2.9,1.7,4,2.7c1.1,1,1.9,2.1,2.5,3.4c0.6,1.3,0.9,2.8,0.9,4.6
		c0,2.2-0.5,4.1-1.5,5.7c-1,1.6-2.3,3-3.9,4c-1.6,1.1-3.5,1.9-5.6,2.4c-2.1,0.5-4.3,0.8-6.6,0.8
		C206.2,124.8,202.3,123.9,198.9,122.2z"/>
</g>
</svg>
